$MeshFormat
4.1 0 8
$EndMeshFormat
$PhysicalNames
2
1 2 "perimetro"
2 1 "dominio"
$EndPhysicalNames
$Entities
4 4 1 0
1 0 0 0 0 
2 100 0 0 0 
3 100 100 0 0 
4 0 100 0 0 
1 -1.000000011686097e-07 -1e-07 -1e-07 100.0000001 1e-07 1e-07 1 2 2 1 -2 
2 99.99999990000001 -1.000000011686097e-07 -1e-07 100.0000001 100.0000001 1e-07 1 2 2 2 -3 
3 -1.000000011686097e-07 99.99999990000001 -1e-07 100.0000001 100.0000001 1e-07 1 2 2 3 -4 
4 -1e-07 -1.000000011686097e-07 -1e-07 1e-07 100.0000001 1e-07 1 2 2 4 -1 
1 -1.000000011686097e-07 -1.000000011686097e-07 -1e-07 100.0000001 100.0000001 1e-07 1 1 4 1 2 3 4 
$EndEntities
$Nodes
9 16 1 16
0 1 0 1
1
0 0 0
0 2 0 1
2
100 0 0
0 3 0 1
3
100 100 0
0 4 0 1
4
0 100 0
1 1 0 2
5
6
33.33333333333333 0 0
66.66666666666666 0 0
1 2 0 2
7
8
100 33.33333333333333 0
100 66.66666666666666 0
1 3 0 2
9
10
66.66666666666667 100 0
33.33333333333334 100 0
1 4 0 2
11
12
0 66.66666666666667 0
0 33.33333333333334 0
2 1 0 4
13
14
15
16
33.33333333333334 33.33333333333335 0
33.33333333333334 66.66666666666667 0
66.66666666666666 33.33333333333333 0
66.66666666666667 66.66666666666666 0
$EndNodes
$Elements
5 21 1 21
1 1 1 3
1 1 5 
2 5 6 
3 6 2 
1 2 1 3
4 2 7 
5 7 8 
6 8 3 
1 3 1 3
7 3 9 
8 9 10 
9 10 4 
1 4 1 3
10 4 11 
11 11 12 
12 12 1 
2 1 3 9
13 1 5 13 12 
14 12 13 14 11 
15 11 14 10 4 
16 5 6 15 13 
17 13 15 16 14 
18 14 16 9 10 
19 6 2 7 15 
20 15 7 8 16 
21 16 8 3 9 
$EndElements
