$MeshFormat
4.1 0 8
$EndMeshFormat
$PhysicalNames
2
1 2 "perimetro"
2 1 "dominio"
$EndPhysicalNames
$Entities
20 20 1 0
1 163 177 0 0 
2 240 177 0 0 
3 240 190 0 0 
4 0 190 0 0 
5 0 177 0 0 
6 77 177 0 0 
7 77 170 0 0 
8 70 170 0 0 
9 70 158 0 0 
10 109 150 0 0 
11 109 45 0 0 
12 90 25 0 0 
13 90 0 0 0 
14 150 0 0 0 
15 150 25 0 0 
16 131 45 0 0 
17 131 150 0 0 
18 170 158 0 0 
19 170 170 0 0 
20 163 170 0 0 
1 162.9999999 176.9999999 -1e-07 240.0000001 177.0000001 1e-07 1 2 2 1 -2 
2 239.9999999 176.9999999 -1e-07 240.0000001 190.0000001 1e-07 1 2 2 2 -3 
3 -9.999999406318238e-08 189.9999999 -1e-07 240.0000001 190.0000001 1e-07 1 2 2 3 -4 
4 -1e-07 176.9999999 -1e-07 1e-07 190.0000001 1e-07 1 2 2 4 -5 
5 -1.000000011686097e-07 176.9999999 -1e-07 77.00000009999999 177.0000001 1e-07 1 2 2 5 -6 
6 76.99999990000001 169.9999999 -1e-07 77.00000009999999 177.0000001 1e-07 1 2 2 6 -7 
7 69.99999990000001 169.9999999 -1e-07 77.00000009999999 170.0000001 1e-07 1 2 2 7 -8 
8 69.99999990000001 157.9999999 -1e-07 70.00000009999999 170.0000001 1e-07 1 2 2 8 -9 
9 69.99999990000001 149.9999999 -1e-07 109.0000001 158.0000001 1e-07 1 2 2 9 -10 
10 108.9999999 44.9999999 -1e-07 109.0000001 150.0000001 1e-07 1 2 2 10 -11 
11 89.99999990000001 24.9999999 -1e-07 109.0000001 45.0000001 1e-07 1 2 2 11 -12 
12 89.99999990000001 -9.99999993922529e-08 -1e-07 90.00000009999999 25.0000001 1e-07 1 2 2 12 -13 
13 89.99999990000001 -1e-07 -1e-07 150.0000001 1e-07 1e-07 1 2 2 13 -14 
14 149.9999999 -9.99999993922529e-08 -1e-07 150.0000001 25.0000001 1e-07 1 2 2 14 -15 
15 130.9999999 24.9999999 -1e-07 150.0000001 45.0000001 1e-07 1 2 2 15 -16 
16 130.9999999 44.9999999 -1e-07 131.0000001 150.0000001 1e-07 1 2 2 16 -17 
17 130.9999999 149.9999999 -1e-07 170.0000001 158.0000001 1e-07 1 2 2 17 -18 
18 169.9999999 157.9999999 -1e-07 170.0000001 170.0000001 1e-07 1 2 2 18 -19 
19 162.9999999 169.9999999 -1e-07 170.0000001 170.0000001 1e-07 1 2 2 19 -20 
20 162.9999999 169.9999999 -1e-07 163.0000001 177.0000001 1e-07 1 2 2 20 -1 
1 -9.999999406318238e-08 -9.999999406318238e-08 -1e-07 240.0000001 190.0000001 1e-07 1 1 20 1 2 3 4 5 6 7 8 9 10 11 12 13 14 15 16 17 18 19 20 
$EndEntities
$Nodes
41 799 1 799
0 1 0 1
1
163 177 0
0 2 0 1
2
240 177 0
0 3 0 1
3
240 190 0
0 4 0 1
4
0 190 0
0 5 0 1
5
0 177 0
0 6 0 1
6
77 177 0
0 7 0 1
7
77 170 0
0 8 0 1
8
70 170 0
0 9 0 1
9
70 158 0
0 10 0 1
10
109 150 0
0 11 0 1
11
109 45 0
0 12 0 1
12
90 25 0
0 13 0 1
13
90 0 0
0 14 0 1
14
150 0 0
0 15 0 1
15
150 25 0
0 16 0 1
16
131 45 0
0 17 0 1
17
131 150 0
0 18 0 1
18
170 158 0
0 19 0 1
19
170 170 0
0 20 0 1
20
163 170 0
1 1 0 15
21
22
23
24
25
26
27
28
29
30
31
32
33
34
35
167.8125 177 0
172.625 177 0
177.4375 177 0
182.2500000000001 177 0
187.0625000000001 177 0
191.8750000000001 177 0
196.6875000000001 177 0
201.5000000000001 177 0
206.3125000000001 177 0
211.1250000000001 177 0
215.9375000000001 177 0
220.7500000000001 177 0
225.5625000000001 177 0
230.375 177 0
235.1875 177 0
1 2 0 3
36
37
38
240 180.25 0
240 183.5 0
240 186.75 0
1 3 0 47
39
40
41
42
43
44
45
46
47
48
49
50
51
52
53
54
55
56
57
58
59
60
61
62
63
64
65
66
67
68
69
70
71
72
73
74
75
76
77
78
79
80
81
82
83
84
85
235 190 0
230 190 0
225 190 0
220 190 0
215 190 0
210 190 0
205 190 0
200 190 0
195 190 0
190 190 0
185 190 0
180 190 0
175 190 0
170 190 0
165 190 0
160 190 0
155 190 0
150 190 0
145 190 0
140 190 0
135 190 0
130 190 0
125 190 0
120 190 0
115 190 0
110 190 0
105 190 0
100 190 0
95 190 0
90 190 0
85 190 0
80 190 0
75 190 0
70 190 0
65 190 0
60 190 0
55 190 0
50 190 0
45 190 0
40 190 0
35 190 0
30 190 0
25 190 0
20 190 0
15 190 0
10 190 0
5 190 0
1 4 0 3
86
87
88
0 186.75 0
0 183.5 0
0 180.25 0
1 5 0 15
89
90
91
92
93
94
95
96
97
98
99
100
101
102
103
4.81250000000001 177 0
9.62500000000002 177 0
14.43750000000004 177 0
19.25000000000006 177 0
24.06250000000007 177 0
28.87500000000009 177 0
33.68750000000011 177 0
38.50000000000013 177 0
43.31250000000011 177 0
48.12500000000011 177 0
52.93750000000009 177 0
57.75000000000007 177 0
62.56250000000005 177 0
67.37500000000003 177 0
72.18750000000001 177 0
1 6 0 1
104
77 173.5 0
1 7 0 1
105
73.5 170 0
1 8 0 3
106
107
108
70 167 0
70 164 0
70 161 0
1 9 0 7
109
110
111
112
113
114
115
74.875 157 0
79.75 156 0
84.62500000000001 155 0
89.50000000000003 154 0
94.37500000000001 153 0
99.25 152 0
104.125 151 0
1 10 0 23
116
117
118
119
120
121
122
123
124
125
126
127
128
129
130
131
132
133
134
135
136
137
138
109 145.625 0
109 141.25 0
109 136.875 0
109 132.5 0
109 128.125 0
109 123.75 0
109 119.375 0
109 115 0
109 110.625 0
109 106.25 0
109 101.875 0
109 97.5 0
109 93.125 0
109 88.75 0
109 84.375 0
109 80 0
109 75.625 0
109 71.25 0
109 66.875 0
109 62.5 0
109 58.125 0
109 53.75 0
109 49.375 0
1 11 0 7
139
140
141
142
143
144
145
106.625 42.5 0
104.25 40 0
101.875 37.5 0
99.5 35 0
97.125 32.5 0
94.75 30 0
92.375 27.5 0
1 12 0 7
146
147
148
149
150
151
152
90 21.875 0
90 18.75 0
90 15.625 0
90 12.5 0
90 9.375 0
90 6.25 0
90 3.125 0
1 13 0 11
153
154
155
156
157
158
159
160
161
162
163
95 0 0
100 0 0
105 0 0
110 0 0
115 0 0
120 0 0
125 0 0
130 0 0
135 0 0
140 0 0
145 0 0
1 14 0 7
164
165
166
167
168
169
170
150 3.125 0
150 6.25 0
150 9.375 0
150 12.5 0
150 15.625 0
150 18.75 0
150 21.875 0
1 15 0 7
171
172
173
174
175
176
177
147.625 27.5 0
145.25 30 0
142.875 32.5 0
140.5 35 0
138.125 37.5 0
135.75 40 0
133.375 42.5 0
1 16 0 23
178
179
180
181
182
183
184
185
186
187
188
189
190
191
192
193
194
195
196
197
198
199
200
131 49.375 0
131 53.75 0
131 58.125 0
131 62.5 0
131 66.875 0
131 71.25 0
131 75.625 0
131 80 0
131 84.375 0
131 88.75 0
131 93.125 0
131 97.5 0
131 101.875 0
131 106.25 0
131 110.625 0
131 115 0
131 119.375 0
131 123.75 0
131 128.125 0
131 132.5 0
131 136.875 0
131 141.25 0
131 145.625 0
1 17 0 7
201
202
203
204
205
206
207
135.875 151 0
140.75 152 0
145.625 153 0
150.5 154 0
155.375 155 0
160.25 156 0
165.125 157 0
1 18 0 3
208
209
210
170 161 0
170 164 0
170 167 0
1 19 0 1
211
166.5 170 0
1 20 0 1
212
163 173.5 0
2 1 0 587
213
214
215
216
217
218
219
220
221
222
223
224
225
226
227
228
229
230
231
232
233
234
235
236
237
238
239
240
241
242
243
244
245
246
247
248
249
250
251
252
253
254
255
256
257
258
259
260
261
262
263
264
265
266
267
268
269
270
271
272
273
274
275
276
277
278
279
280
281
282
283
284
285
286
287
288
289
290
291
292
293
294
295
296
297
298
299
300
301
302
303
304
305
306
307
308
309
310
311
312
313
314
315
316
317
318
319
320
321
322
323
324
325
326
327
328
329
330
331
332
333
334
335
336
337
338
339
340
341
342
343
344
345
346
347
348
349
350
351
352
353
354
355
356
357
358
359
360
361
362
363
364
365
366
367
368
369
370
371
372
373
374
375
376
377
378
379
380
381
382
383
384
385
386
387
388
389
390
391
392
393
394
395
396
397
398
399
400
401
402
403
404
405
406
407
408
409
410
411
412
413
414
415
416
417
418
419
420
421
422
423
424
425
426
427
428
429
430
431
432
433
434
435
436
437
438
439
440
441
442
443
444
445
446
447
448
449
450
451
452
453
454
455
456
457
458
459
460
461
462
463
464
465
466
467
468
469
470
471
472
473
474
475
476
477
478
479
480
481
482
483
484
485
486
487
488
489
490
491
492
493
494
495
496
497
498
499
500
501
502
503
504
505
506
507
508
509
510
511
512
513
514
515
516
517
518
519
520
521
522
523
524
525
526
527
528
529
530
531
532
533
534
535
536
537
538
539
540
541
542
543
544
545
546
547
548
549
550
551
552
553
554
555
556
557
558
559
560
561
562
563
564
565
566
567
568
569
570
571
572
573
574
575
576
577
578
579
580
581
582
583
584
585
586
587
588
589
590
591
592
593
594
595
596
597
598
599
600
601
602
603
604
605
606
607
608
609
610
611
612
613
614
615
616
617
618
619
620
621
622
623
624
625
626
627
628
629
630
631
632
633
634
635
636
637
638
639
640
641
642
643
644
645
646
647
648
649
650
651
652
653
654
655
656
657
658
659
660
661
662
663
664
665
666
667
668
669
670
671
672
673
674
675
676
677
678
679
680
681
682
683
684
685
686
687
688
689
690
691
692
693
694
695
696
697
698
699
700
701
702
703
704
705
706
707
708
709
710
711
712
713
714
715
716
717
718
719
720
721
722
723
724
725
726
727
728
729
730
731
732
733
734
735
736
737
738
739
740
741
742
743
744
745
746
747
748
749
750
751
752
753
754
755
756
757
758
759
760
761
762
763
764
765
766
767
768
769
770
771
772
773
774
775
776
777
778
779
780
781
782
783
784
785
786
787
788
789
790
791
792
793
794
795
796
797
798
799
104.1549387703137 31.87365840577095 0
132.6433356092985 33.88708156388654 0
128.2411789790372 180.5860276215512 0
96.79030827185173 16.79437897532188 0
143.8651335114522 15.6349983795826 0
156.4082114796334 173.2367073705494 0
82.91009571750249 174.1414111763126 0
108.7301154047255 157.9625193349496 0
122.7649529290746 7.538747994753606 0
133.5731251019623 160.9352282552067 0
109.5358186120174 181.4607405893279 0
117.0429435175139 155.4117089774164 0
114.9381352726145 49.32411633447737 0
115.0769180722769 42.77553727932124 0
109.3966469082791 165.6438115079033 0
145.182343972101 181.0776309705157 0
116.5909384218343 146.9141590586259 0
116.3621858073723 129.6002201922815 0
116.3491486852665 112.126270573273 0
116.3455139618202 94.65102963856941 0
116.3299028447045 77.29660261228186 0
103.1726893636449 166.9413556161995 0
117.6066247665617 163.909949593944 0
123.8970257271212 57.56217019731574 0
103.4665718425102 8.732733897794944 0
123.6807686291957 83.03574890454161 0
123.6888707523493 100.4768852912675 0
123.6923708345719 117.9628197519207 0
123.7644849319271 135.4017801725028 0
159.2572628340904 164.992745236453 0
149.3784554127964 170.6566705850962 0
83.05450206183255 165.7564646782225 0
93.20933867739753 170.183893517688 0
88.70689495376432 179.4438691654649 0
142.2922992661288 24.21977378568877 0
137.5868806634801 18.01511569154985 0
138.023580581079 9.034483990074804 0
97.78044554331539 22.64393564195836 0
103.7651159547466 21.82563147353225 0
122.3023117764718 46.03981071057382 0
119.3104648095195 35.57274069012516 0
112.9232045076253 31.64829402972353 0
122.0656333093967 29.92545848760759 0
115.4447284175685 25.91623964284891 0
123.4880565571868 23.54901296865563 0
117.4872852362771 19.71514392603565 0
114.7286727884709 7.110654227763163 0
154.3039799251817 180.4608863010922 0
118.1687162644588 172.4816850886077 0
126.8527837523535 171.3351789508233 0
138.4762794193616 179.5845526983145 0
135.0995674066175 170.1665306007942 0
132.445076808691 23.17004471380611 0
103.8593460709501 25.80780922607259 0
141.7006650113698 161.1883840144268 0
123.6697074771484 65.85421775393536 0
124.5751920342257 152.9814826435124 0
75.66270509375077 163.4080170455506 0
164.5993801477032 163.3197896062906 0
98.71267359134309 161.5463659740832 0
127.9186310186726 38.5585514126722 0
144.3365971329052 10.78306794449939 0
96.17638618987772 10.662726956762 0
118.9523079660797 181.1734034889716 0
101.4105599941761 172.6678936453651 0
109.4672713653888 23.05208537300918 0
115.8195537677228 61.03507119015677 0
128.6185414156743 28.20158270576243 0
116.4240294585104 138.3013856821248 0
116.3514490314483 120.8639796294209 0
116.3476228786268 103.3784406834618 0
116.3410118244098 85.93551072994278 0
123.6687501694465 74.36215431482519 0
123.6820892143048 91.7311312534754 0
123.6859186947054 109.2083496378498 0
123.7043725499825 126.6844325728569 0
109.0812448987951 36.39177777783084 0
125.835075513228 16.36387355439949 0
78.36699620854719 182.5547900010423 0
109.6669797256124 173.1896479572692 0
111.0352237603088 16.76330100034093 0
123.9551849161905 144.1035203601562 0
107.4838574263436 28.04702228216881 0
100.1237455471784 180.9192161223711 0
68.7893536382643 183.3355044430117 0
162.3387940701029 182.6595592420101 0
131.3051479862631 13.77325589009097 0
147.5716195033563 177.4005454129146 0
15.56445511491629 183.4987657662709 0
220.5462104619314 183.4982179162574 0
130.655382758773 7.904257644894471 0
118.3758637636546 52.00460746159611 0
9.121752576474449 183.4998574438356 0
230.2463388917198 183.4997158260167 0
114.9837729199271 55.88225650046466 0
23.80012458648845 183.4970003134845 0
210.7334598668302 183.4973914430809 0
30.26564070540334 183.4971875874919 0
200.9140076701113 183.4970066166075 0
59.00147096125268 183.4703140343493 0
171.5657438529201 183.3569186462643 0
39.49453963240119 183.4972061986212 0
191.0804416810633 183.4945771691236 0
142.9157282510641 175.1710650456596 0
49.17322016390519 183.4939844866535 0
181.2422468219615 183.4752340097201 0
103.9732258812731 15.89046954664222 0
150.1536256727111 162.6737185116303 0
90.49012956593049 160.1027426335394 0
116.2708304227737 68.78608012953646 0
125.8108656215582 49.06001193721747 0
125.9311354424653 31.82369291049812 0
95.08279335134574 6.085708790053374 0
119.2478396121566 14.86250668666162 0
145.197570860115 6.164572898254718 0
125.6006258167091 162.1679050818549 0
136.9754867588931 29.07029127011657 0
100.1607751856522 27.55214424098359 0
74.25812412389126 165.402949217526 0
166.0520705867547 165.2989313730926 0
142.3433286979637 169.5622024067296 0
150.937799714269 178.9307158570034 0
152.1519899625908 185.2304431505461 0
147.5911719860505 185.5388154852578 0
146.3769817377286 179.2390881917152 0
149.2644858501597 182.2347656711306 0
100.942681477494 164.2438607951413 0
102.2916246789105 169.8046246307823 0
97.3099493357868 171.4258935815266 0
95.96100613437031 165.8651297458856 0
99.1263154066404 167.834877188334 0
110.2035309669845 29.84765815594616 0
111.0022247032102 34.02003590377718 0
106.6180918345544 34.1327180918009 0
105.8193980983287 29.96034034396988 0
108.4108114007694 31.99018812387352 0
129.1205894895186 185.2930138107756 0
133.3587291991994 180.0852901599328 0
139.2381397096808 184.7922763491572 0
134.1793645995997 185.0426450799664 0
141.1800888569921 9.908775967287099 0
139.0117902905395 4.517241995037409 0
142.5987854300575 3.082286449127366 0
144.7670839965101 8.473820421377056 0
141.8894371435248 6.49553120820724 0
89.35344747688217 184.7219345827325 0
79.1834981042736 186.2773950005212 0
83.53694558115575 180.9993295832536 0
84.26847279057787 185.4996647916268 0
119.9993265070755 75.82937846355352 0
116.3003666337391 73.04134137090915 0
119.9702689499611 67.32014894173591 0
123.6692288232975 70.10818603438028 0
119.9847977285183 71.57476370264472 0
116.3931076329413 133.9508029372032 0
120.0332791786774 128.1423263825692 0
123.7344287409548 131.0431063726799 0
120.0942571952187 136.8515829273138 0
120.0637681869481 132.4969546549415 0
116.3502988583574 116.495125101347 0
120.017533689986 110.6673101055614 0
123.6891447646387 113.5855846948853 0
120.0219099330101 119.4133996906708 0
120.019721811498 115.0403548981161 0
123.6983716922772 122.3236261623888 0
116.3568174194102 125.2320999108512 0
120.0275945558437 123.77786303662 0
120.0182468154881 101.9276629873647 0
123.6873947235274 104.8426174645587 0
116.3483857819467 107.7523556283674 0
120.017890252737 106.297486546463 0
120.0108902268028 84.48562981724218 0
123.6814289217503 87.38344007900849 0
120.0138015880625 93.19108044602241 0
116.343262893115 90.2932701842561 0
120.0123459074326 88.8383551316323 0
116.3465684202235 99.01473516101564 0
123.6854799833271 96.10400827237146 0
120.0160242017753 97.55937171669355 0
123.6747593993211 78.69895160968339 0
116.3354573345572 81.61605667111232 0
120.0051083669391 80.15750414039786 0
97.28537690758355 19.71915730864012 0
93.8902227716577 23.82196782097918 0
93.39515413592586 17.77218948766094 0
93.64268845379178 20.79707865432006 0
123.8598349240588 139.7526502663295 0
120.2730616690124 145.5088397093911 0
116.5074839401723 142.6077723703754 0
120.1836594321156 141.1802113183524 0
125.0879089254674 157.5746938626837 0
121.6036252916354 163.0389273378994 0
117.3247841420378 159.6608292856802 0
120.8090677758698 154.1965958104644 0
121.2063465337526 158.6177615741819 0
161.1693970350514 186.3297796210051 0
158.3213869976423 181.5602227715511 0
156.6606934988211 185.7801113857756 0
95.62958977061173 8.374217873407687 0
97.54139667567287 3.042854395026694 0
101.7332859212551 4.366366948897479 0
99.82147901619396 9.697730427278472 0
98.68143784593342 6.370292411152576 0
235.1231694458599 183.4998579130084 0
230.3106694458599 180.2498579130084 0
235.15533472293 180.2499289565042 0
9.373376288237239 180.2499287219178 0
4.560876288237225 183.4999287219178 0
4.686688144118619 180.2499643609589 0
230.1231694458599 186.7498579130084 0
235.06158472293 186.7499289565042 0
9.560876288237225 186.7499287219178 0
4.780438144118605 186.7499643609589 0
167.2996900738516 160.6598948031453 0
161.9283214908968 164.1562674213718 0
159.7536314170452 160.4963726182265 0
163.5266607454484 160.5781337106859 0
81.40225103091628 160.8782323391112 0
79.35860357779165 164.5822408618865 0
72.83135254687539 160.7040085227753 0
77.11680178889583 160.7911204309433 0
109.0976223154906 7.921694062779054 0
112.3643363942355 3.555327113881589 0
107.0488111577453 3.960847031389534 0
107.5042248207909 16.32688527349157 0
110.2512475628488 19.90769318667506 0
106.6161936600677 22.43885842327072 0
103.8691709180099 18.85805051008724 0
107.0602092404293 19.38287184838114 0
146.1461496330644 21.48488689284439 0
139.9395899648045 21.11744473861931 0
140.7260070874662 16.82505703556623 0
146.9325667557261 17.19249918979131 0
143.4360783602653 19.1549719642053 0
112.0384590361384 43.88776863966062 0
115.0075266724456 46.0498268068993 0
111.9690676363072 51.53705816723868 0
112.0037633362228 47.71241340344964 0
127.5469813656954 175.9606032861873 0
123.5967434725584 180.8797155552614 0
118.5605121152692 176.8275442887897 0
122.5107500084061 171.9084320197155 0
123.0537467404823 176.3940737874885 0
103.7198988618916 12.31160172221858 0
112.8819482743899 11.93697761405204 0
108.3009235681407 12.12428966813532 0
118.7468128587728 7.324701111258378 0
121.3824764645373 3.769373997376803 0
116.8734064293864 3.662350555629189 0
141.8293116957313 180.3310918344151 0
143.4146558478656 185.1655459172075 0
130.9761755794855 170.7508547758088 0
136.7879234129895 174.8755416495543 0
132.1674523893425 175.4180724678708 0
108.4755643958662 25.54955382758899 0
112.4559998914786 24.48416250792904 0
114.1839664625969 28.78226683628623 0
111.3297654292316 27.16591033193762 0
125.1104713975722 42.29918106162302 0
118.6896149243743 44.40767399494753 0
117.1936914408982 39.1741389847232 0
123.614547914096 37.06564605139869 0
121.1520814192352 40.7366600231731 0
116.8169409696741 151.1629340180211 0
112.8865294611197 156.687114156183 0
108.8650577023627 153.9812596674748 0
112.7954692109171 148.4570795293129 0
112.8409993360184 152.572096842748 0
141.2253325056849 156.5941920072134 0
137.636895056666 161.0618061348167 0
132.2865625509812 155.4676141276034 0
136.755947528333 156.0309030674084 0
123.7833666021348 61.70819397562555 0
127.4485128635606 55.65608509865787 0
127.3348537385742 64.17710887696768 0
127.3916833010674 59.91659698781278 0
120.487670896732 21.63207844734563 0
118.3675624242169 17.28882530634863 0
122.5414575626923 15.61319012053056 0
124.6615660352074 19.95644326152757 0
121.5145642297121 18.6226342839381 0
69.39467681913214 186.6677522215059 0
73.57817492340575 182.945147222027 0
74.28908746170288 186.4725736110135 0
143.7711496330644 27.10988689284439 0
146.8855748165322 24.4924434464222 0
111.9918864599635 54.81612825023234 0
115.4016633438249 58.45866384531072 0
112.4097768838614 61.76753559507839 0
112.2008316719125 58.29183192265536 0
129.4593155093363 41.77927570633611 0
128.4054328107791 47.03000596860873 0
124.056588699015 47.54991132389564 0
126.7579521041756 44.66459351511588 0
68.08217681913217 180.1677522215059 0
77.6834981042736 179.7773950005212 0
72.88283746170288 179.9725736110135 0
103.7213944980343 159.7544426545164 0
98.98133679567155 156.7731829870416 0
103.9231972490171 155.3772213272582 0
119.4761539830398 185.5867017444858 0
124.2983717362792 185.4398577776307 0
109.0633811565023 161.8031654214265 0
106.284668135962 166.2925835620514 0
105.0030313169981 163.0235131082839 0
127.7875960171128 151.4907413217562 0
129.5868754593357 161.5515666685308 0
128.6872357382242 156.5211539951435 0
116.1168346585724 33.61051735992434 0
118.7551808634826 27.92084906522825 0
120.6880490594581 32.74909958886637 0
117.4360077610275 30.76568321257629 0
113.5016358374204 164.7768805509236 0
113.19408264927 160.7319973535533 0
127.3343750847233 72.8060771574126 0
127.3346144116487 68.49159301719013 0
130.5318091121827 25.68581370978427 0
134.7102817837921 26.12016799196134 0
134.8094111840958 31.47868641700155 0
130.6309385124864 31.04433213482449 0
132.6706101481392 28.58225006339292 0
154.7054442534007 163.8332318740416 0
150.3268128363556 158.3368592558151 0
155.0402221267004 159.4166159370208 0
130.2809833139855 36.22281648827936 0
134.1966678046493 36.94354078194327 0
131.8279916569928 39.36140824413968 0
127.3410446071524 90.24056562673769 0
127.3403843145979 81.5178744522708 0
127.3407144608751 85.87922003950425 0
112.6757245157241 122.3069898147105 0
112.6810929036861 131.0501100961407 0
112.6784087097051 126.6785499554256 0
112.6738114393134 104.8142203417309 0
112.6745743426332 113.5631352866365 0
112.6741928909733 109.1886778141837 0
127.3429593473527 107.7291748189249 0
127.3444353761747 98.98844264563377 0
127.3436973617637 103.3588087322793 0
127.3521862749913 125.2172162864285 0
127.3461854172859 116.4814098759604 0
127.3491858461386 120.8493130811944 0
112.7120147292552 139.7756928410624 0
112.7537419700862 144.1163861851877 0
112.6705059122049 87.3427553649714 0
112.6727569809101 96.07551481928471 0
112.6716314465575 91.70913509212805 0
142.0219968546668 165.3752932105781 0
138.7214480522906 169.8643665037619 0
134.3363462542899 165.5508794280004 0
138.1791715544783 165.4630863192893 0
89.99506478296526 157.0513713167697 0
86.77231581388152 162.929603655881 0
85.69865790694077 158.9648018279405 0
116.4660068269228 22.81569178444228 0
122.7768449332918 26.73723572813161 0
119.6214258801073 24.77646375628694 0
124.8539456743397 53.3110910672666 0
127.9269728371699 51.3430455336333 0
114.2440632890485 181.3170720391498 0
109.7679093060087 185.730370294664 0
114.6220316445243 185.6585360195749 0
109.5318133169458 169.4167297325863 0
105.5387698598943 172.9287708013172 0
105.9117189979281 169.6106771816843 0
145.86089205538 170.1094364959129 0
145.9271453420405 161.9310512630285 0
149.7660405427537 166.6651945483632 0
145.8940186987103 166.0202438794707 0
106.6656224493975 38.19588888891542 0
112.079081485536 39.58365752857604 0
109.352040742768 41.04182876428801 0
126.0532989864306 25.87529783720903 0
129.1400761609595 19.76695913410279 0
127.596687573695 22.82112848565592 0
134.339481669926 8.469370817484645 0
130.3276913793865 3.952128822447236 0
134.669740834963 4.234685408742322 0
176.4039953374408 183.4160763279922 0
172.0953719264601 180.1784593231322 0
181.7461234109808 180.23761700486 0
176.9207476687204 180.2080381639961 0
94.41532025047134 180.181542643918 0
100.0618727735892 185.4596080611855 0
94.70766012523566 185.090771321959 0
124.2651884752081 148.5425015018343 0
127.4775924580952 142.6767601800781 0
127.632594237604 147.0837507509171 0
109.6013991688149 177.3251942732986 0
104.8297820795979 181.1899783558495 0
100.7671527706772 176.7935548838681 0
105.1842759697461 177.0593745785833 0
113.9178479950356 172.8356665229385 0
114.0809556420421 177.0763692810441 0
59.50073548062634 186.7351570171747 0
49.58661008195259 186.7469922433267 0
54.08734556257893 183.4821492605014 0
54.54367278128944 186.7410746302507 0
127.2748384290698 30.01263780813028 0
123.998384375931 30.87457569905285 0
125.0258416811808 28.37493676813095 0
102.0100606283011 26.67997673352809 0
105.6716017486469 26.9274157541207 0
102.157856977983 29.71290132337728 0
103.9147293633149 28.32015853874898 0
127.3822424659635 133.9508900862514 0
127.4299174620294 138.3138251331648 0
139.633893012511 26.64503252790267 0
135.0159787360856 20.59258020267798 0
137.3249358742983 23.61880636529034 0
112.6965538164707 135.4129014686016 0
112.6751494291787 117.9350625506735 0
112.6732842101117 100.4448675805078 0
112.6649514223522 78.64830130614092 0
112.6677286672786 82.99552833555616 0
127.3373796996606 77.1619758048417 0
127.3427399916635 94.61450413618573 0
127.3445723823193 112.1052923474426 0
127.3672143704774 129.5840531863399 0
140.6960038352128 177.377808871987 0
145.2436738772102 176.2858052292871 0
143.5364927864707 178.3084485318511 0
138.7377433794466 32.03514563505829 0
136.4672055920479 34.48934320850078 0
85.80849533563341 176.7926401708888 0
82.98229888966752 169.9489379272675 0
88.13192036961505 167.9701790979553 0
90.95811681558092 174.8138813415765 0
86.97020785262421 172.381409634422 0
142.6295284745139 172.3666337261946 0
148.4750374580763 174.0286079990054 0
145.5522829662951 173.1976208626 0
116.0451920952483 64.91057565984661 0
112.6354152113868 70.01804006476823 0
112.5225960476241 65.89278782992331 0
103.8122310128484 23.81672034980242 0
98.9706103644838 25.09803994147097 0
100.772780749031 22.23478355774532 0
101.3914206886661 24.45738014563671 0
120.5410647224411 149.8527177599277 0
114.0979580720542 36.59708744425021 0
114.2612544982929 18.2392224631883 0
116.9882562003138 10.9865804572124 0
115.6247553493034 14.61290146020033 0
117.8876705155102 168.1958173412758 0
113.709741916228 168.8062735369311 0
126.9248832305689 35.19112216158516 0
123.8064661450135 33.97011087522577 0
126.7101678439238 7.721502819824039 0
125.8550839219619 3.860751409912027 0
180.6211234109808 186.73761700486 0
186.1613442515124 183.4849055894218 0
190.5402208405316 186.7472885845618 0
185.5806721257562 186.7424527947109 0
39.7472698162006 186.7486030993106 0
44.33387989815319 183.4955953426373 0
44.66693994907658 186.7477976713187 0
94.6014015786368 160.8245543038113 0
91.36666097412592 164.3973667008833 0
104.9148910397989 185.5949891779248 0
126.2267047845313 166.7515420163391 0
122.0571876500208 167.4736796788075 0
80.02725103091628 167.8782323391112 0
79.95504785875124 175.5707055881563 0
79.99114944483375 171.7244689636338 0
159.7041057398167 175.1183536852747 0
157.8327371568619 169.1147263035012 0
161.1286314170452 167.4963726182265 0
160.4163685784309 171.3073631517506 0
97.45538759282611 28.77607212049179 0
95.6728051822419 26.29901997073549 0
101.8274693851568 33.43682920288548 0
104.2465459172772 35.81635904590046 0
113.3586271948858 21.36169248555868 0
93.08819309493886 11.58136347838101 0
96.48334723086472 13.72855296604195 0
93.24167361543236 14.67677648302097 0
155.3560957024075 176.8487968358208 0
162.6693970350514 179.8297796210051 0
159.0127463687295 178.3392882284129 0
30.13282035270167 186.748593793746 0
34.88009016890226 183.4971968930566 0
34.94004508445113 186.7485984465283 0
195.9972246755873 183.4957918928656 0
200.4570038350557 186.7485033083038 0
195.4986123377936 186.7478959464328 0
124.3000142211513 11.95131077457654 0
130.980265372518 10.83875676749273 0
128.5701117497455 15.06856472224523 0
127.6401397968347 11.39503377103463 0
152.8933334462149 171.9466889778228 0
153.7993888498078 167.8899604259322 0
144.1008653221787 13.209033162041 0
147.1682985664526 11.6415339722497 0
147.0504326610894 14.4170165810205 0
145.7760726710202 157.4655256315143 0
205.8237337684708 183.4971990298442 0
210.3667299334151 186.7486957215405 0
205.4118668842354 186.7485995149221 0
21.90006229324422 186.7485001567423 0
27.0328826459459 183.4970939504882 0
26.01644132297295 186.7485469752441 0
74.96041460882103 164.4054831315383 0
72.12906206194563 164.701474608763 0
72.48020730441051 162.7027415657691 0
168.0260352933774 164.6494656865463 0
165.325725367229 164.3093604896916 0
167.6628626836145 162.6546802448458 0
106.1438977043573 24.6831370886957 0
120.3390877700632 49.02220908608496 0
116.6569995181345 50.66436189803673 0
117.6733072212544 47.53601794649212 0
119.858289747422 59.29862069373625 0
119.9142793486916 63.30938481773607 0
92.54139667567287 6.167854395026694 0
93.77069833783644 3.083927197513361 0
147.5987854300575 6.207286449127366 0
146.2993927150287 3.103643224563683 0
215.6398351643808 183.4978046796692 0
220.2731052309657 186.7491089581287 0
215.3199175821904 186.7489023398346 0
170.7828719264601 186.6784593231322 0
175.7019976687204 186.7080381639961 0
220.6481052309657 180.2491089581287 0
210.9292299334152 180.2486957215405 0
215.7886675821904 180.2489023398346 0
17.78222755745814 186.7493828831355 0
17.40722755745817 180.2493828831355 0
21.52506229324425 180.2485001567423 0
19.65364492535119 183.4989415199389 0
201.2070038350557 180.2485033083038 0
206.0681168842355 180.2485995149221 0
29.57032035270171 180.248593793746 0
25.54769132297298 180.2485469752441 0
95.86263479312908 175.8037181127223 0
130.2815255194106 166.1512107221698 0
81.7459967199535 178.285017585705 0
48.64911008195264 180.2469922433267 0
58.37573548062637 180.2351570171747 0
53.5124227812895 180.2410746302507 0
100.3817670765624 16.34242426098206 0
100.5772739127967 19.28860390936367 0
38.99726981620066 180.2486030993106 0
34.28379508445119 180.2485984465283 0
191.4777208405317 180.2472885845618 0
196.3423623377937 180.2478959464328 0
112.6501833168695 74.33317068545458 0
137.8052306222796 13.52479984081234 0
140.9530479722291 13.36691650142666 0
186.6119221257562 180.2424527947109 0
43.82318994907665 180.2477976713187 0
94.4882007893184 156.9122771519056 0
141.2544465062555 29.57251626395134 0
134.4460143248716 15.89418579082042 0
131.7930452429156 17.8305724624616 0
99.64142848899148 31.10645066168865 0
75.62906206194563 167.701474608763 0
77.49383281986866 166.1418577353248 0
164.5260352933774 167.6494656865463 0
163.2271783921371 165.902866553959 0
167.2630176466887 167.3247328432731 0
72.81453103097282 167.3507373043815 0
128.7779108715277 33.11772714820481 0
92.81479488530587 8.874608936703851 0
151.9155665802419 175.4387024174131 0
116.6798183417908 53.94343198103039 0
121.1364447453879 54.78338882945593 0
118.2690540446064 56.62102633738334 0
147.3835419982551 8.924410210688535 0
134.3927479973988 12.18177830415253 0
100.1016230463782 13.02007734413027 0
114.324442989049 52.74024507413453 0
120.6441352107325 11.46894561589447 0
166.9522689615115 183.0082389441372 0
165.9761344807558 186.5041194720686 0
63.89541229975849 183.4029092386805 0
64.44770614987925 186.7014546193403 0
63.22895614987927 180.2014546193403 0
167.3823844807558 180.0041194720686 0
12.34310384569537 183.4993116050533 0
13.3903019228477 180.2496558025267 0
225.3962746768256 183.498966871137 0
225.4793873384128 180.2494834355685 0
122.5965167222014 51.16665007667578 0
225.1981373384128 186.7494834355685 0
13.67155192284768 186.7496558025266 0
139.7087259437517 173.6210876878745 0
$EndNodes
$Elements
21 904 1 904
1 1 1 16
1 1 21 
2 21 22 
3 22 23 
4 23 24 
5 24 25 
6 25 26 
7 26 27 
8 27 28 
9 28 29 
10 29 30 
11 30 31 
12 31 32 
13 32 33 
14 33 34 
15 34 35 
16 35 2 
1 2 1 4
17 2 36 
18 36 37 
19 37 38 
20 38 3 
1 3 1 48
21 3 39 
22 39 40 
23 40 41 
24 41 42 
25 42 43 
26 43 44 
27 44 45 
28 45 46 
29 46 47 
30 47 48 
31 48 49 
32 49 50 
33 50 51 
34 51 52 
35 52 53 
36 53 54 
37 54 55 
38 55 56 
39 56 57 
40 57 58 
41 58 59 
42 59 60 
43 60 61 
44 61 62 
45 62 63 
46 63 64 
47 64 65 
48 65 66 
49 66 67 
50 67 68 
51 68 69 
52 69 70 
53 70 71 
54 71 72 
55 72 73 
56 73 74 
57 74 75 
58 75 76 
59 76 77 
60 77 78 
61 78 79 
62 79 80 
63 80 81 
64 81 82 
65 82 83 
66 83 84 
67 84 85 
68 85 4 
1 4 1 4
69 4 86 
70 86 87 
71 87 88 
72 88 5 
1 5 1 16
73 5 89 
74 89 90 
75 90 91 
76 91 92 
77 92 93 
78 93 94 
79 94 95 
80 95 96 
81 96 97 
82 97 98 
83 98 99 
84 99 100 
85 100 101 
86 101 102 
87 102 103 
88 103 6 
1 6 1 2
89 6 104 
90 104 7 
1 7 1 2
91 7 105 
92 105 8 
1 8 1 4
93 8 106 
94 106 107 
95 107 108 
96 108 9 
1 9 1 8
97 9 109 
98 109 110 
99 110 111 
100 111 112 
101 112 113 
102 113 114 
103 114 115 
104 115 10 
1 10 1 24
105 10 116 
106 116 117 
107 117 118 
108 118 119 
109 119 120 
110 120 121 
111 121 122 
112 122 123 
113 123 124 
114 124 125 
115 125 126 
116 126 127 
117 127 128 
118 128 129 
119 129 130 
120 130 131 
121 131 132 
122 132 133 
123 133 134 
124 134 135 
125 135 136 
126 136 137 
127 137 138 
128 138 11 
1 11 1 8
129 11 139 
130 139 140 
131 140 141 
132 141 142 
133 142 143 
134 143 144 
135 144 145 
136 145 12 
1 12 1 8
137 12 146 
138 146 147 
139 147 148 
140 148 149 
141 149 150 
142 150 151 
143 151 152 
144 152 13 
1 13 1 12
145 13 153 
146 153 154 
147 154 155 
148 155 156 
149 156 157 
150 157 158 
151 158 159 
152 159 160 
153 160 161 
154 161 162 
155 162 163 
156 163 14 
1 14 1 8
157 14 164 
158 164 165 
159 165 166 
160 166 167 
161 167 168 
162 168 169 
163 169 170 
164 170 15 
1 15 1 8
165 15 171 
166 171 172 
167 172 173 
168 173 174 
169 174 175 
170 175 176 
171 176 177 
172 177 16 
1 16 1 24
173 16 178 
174 178 179 
175 179 180 
176 180 181 
177 181 182 
178 182 183 
179 183 184 
180 184 185 
181 185 186 
182 186 187 
183 187 188 
184 188 189 
185 189 190 
186 190 191 
187 191 192 
188 192 193 
189 193 194 
190 194 195 
191 195 196 
192 196 197 
193 197 198 
194 198 199 
195 199 200 
196 200 17 
1 17 1 8
197 17 201 
198 201 202 
199 202 203 
200 203 204 
201 204 205 
202 205 206 
203 206 207 
204 207 18 
1 18 1 4
205 18 208 
206 208 209 
207 209 210 
208 210 19 
1 19 1 2
209 19 211 
210 211 20 
1 20 1 2
211 20 212 
212 212 1 
2 1 3 692
213 300 334 338 337 
214 334 260 335 338 
215 338 335 56 336 
216 337 338 336 228 
217 272 339 343 342 
218 339 234 340 343 
219 343 340 277 341 
220 342 343 341 245 
221 295 344 348 347 
222 344 254 345 348 
223 348 345 289 346 
224 347 348 346 213 
225 58 59 352 351 
226 59 60 349 352 
227 352 349 215 350 
228 351 352 350 263 
229 274 353 357 356 
230 353 249 354 357 
231 357 354 162 355 
232 356 357 355 327 
233 246 358 361 360 
234 358 68 69 361 
235 361 69 70 359 
236 360 361 359 291 
237 285 362 366 365 
238 362 233 363 366 
239 366 363 322 364 
240 365 366 364 268 
241 281 367 371 370 
242 367 230 368 371 
243 371 368 288 369 
244 370 371 369 241 
245 282 372 376 375 
246 372 231 373 376 
247 376 373 287 374 
248 375 376 374 240 
249 282 375 379 378 
250 375 240 377 379 
251 379 377 288 368 
252 378 379 368 230 
253 283 380 383 382 
254 380 239 381 383 
255 383 381 287 373 
256 382 383 373 231 
257 284 384 388 387 
258 384 238 385 388 
259 388 385 286 386 
260 387 388 386 232 
261 283 389 391 380 
262 389 232 386 391 
263 391 386 286 390 
264 380 391 390 239 
265 285 392 394 362 
266 392 238 384 394 
267 394 384 284 393 
268 362 394 393 233 
269 216 395 398 397 
270 395 250 396 398 
271 398 396 12 146 
272 397 398 146 147 
273 281 370 402 401 
274 370 241 399 402 
275 402 399 294 400 
276 401 402 400 229 
277 269 403 407 406 
278 403 328 404 407 
279 407 404 235 405 
280 406 407 405 224 
281 298 408 410 409 
282 408 54 55 410 
283 410 55 56 335 
284 409 410 335 260 
285 275 411 415 414 
286 411 325 412 415 
287 415 412 154 413 
288 414 415 413 237 
289 37 416 418 36 
290 416 306 417 418 
291 418 417 34 35 
292 36 418 35 2 
293 87 88 421 420 
294 88 5 89 421 
295 421 89 90 419 
296 420 421 419 305 
297 37 38 423 416 
298 38 3 39 423 
299 423 39 40 422 
300 416 423 422 306 
301 87 420 425 86 
302 420 305 424 425 
303 425 424 84 85 
304 86 425 85 4 
305 18 426 429 207 
306 426 271 427 429 
307 429 427 242 428 
308 207 429 428 206 
309 9 109 433 432 
310 109 110 430 433 
311 433 430 244 431 
312 432 433 431 270 
313 259 434 436 435 
314 434 237 413 436 
315 436 413 154 155 
316 435 436 155 156 
317 319 437 441 440 
318 437 293 438 441 
319 441 438 278 439 
320 440 441 439 251 
321 169 442 446 445 
322 442 247 443 446 
323 446 443 248 444 
324 445 446 444 217 
325 137 138 450 449 
326 138 11 447 450 
327 450 447 226 448 
328 449 450 448 225 
329 262 451 455 454 
330 451 215 452 455 
331 455 452 276 453 
332 454 455 453 261 
333 319 456 458 437 
334 456 237 434 458 
335 458 434 259 457 
336 437 458 457 293 
337 221 459 461 460 
338 459 259 435 461 
339 461 435 156 157 
340 460 461 157 158 
341 263 462 463 351 
342 462 228 336 463 
343 463 336 56 57 
344 351 463 57 58 
345 215 451 466 350 
346 451 262 464 466 
347 466 464 264 465 
348 350 466 465 263 
349 254 344 470 469 
350 344 295 467 470 
351 470 467 278 468 
352 469 470 468 256 
353 273 471 475 474 
354 471 252 472 475 
355 475 472 226 473 
356 474 475 473 253 
357 229 476 480 479 
358 476 224 477 480 
359 480 477 220 478 
360 479 480 478 10 
361 17 201 484 483 
362 201 202 481 484 
363 484 481 267 482 
364 483 484 482 222 
365 268 485 488 487 
366 485 236 486 488 
367 488 486 179 180 
368 487 488 180 181 
369 257 489 493 492 
370 489 258 490 493 
371 493 490 326 491 
372 492 493 491 290 
373 291 359 496 495 
374 359 70 71 496 
375 496 71 72 494 
376 495 496 494 297 
377 169 170 498 442 
378 170 15 171 498 
379 498 171 172 497 
380 442 498 497 247 
381 137 499 502 136 
382 499 307 500 502 
383 502 500 279 501 
384 136 502 501 135 
385 273 503 506 471 
386 503 16 504 506 
387 506 504 323 505 
388 471 506 505 252 
389 291 495 509 508 
390 495 297 507 509 
391 509 507 102 103 
392 508 509 103 6 
393 10 478 512 115 
394 478 220 510 512 
395 512 510 272 511 
396 115 512 511 114 
397 60 61 514 349 
398 61 62 513 514 
399 514 513 276 452 
400 349 514 452 215 
401 272 510 517 339 
402 510 220 515 517 
403 517 515 227 516 
404 339 517 516 234 
405 269 518 520 403 
406 518 17 483 520 
407 520 483 222 519 
408 403 520 519 328 
409 253 521 524 523 
410 521 254 469 524 
411 524 469 256 522 
412 523 524 522 255 
413 235 525 526 405 
414 525 227 515 526 
415 526 515 220 477 
416 405 526 477 224 
417 181 182 528 487 
418 182 183 527 528 
419 528 527 285 365 
420 487 528 365 268 
421 280 529 533 532 
422 529 265 530 533 
423 533 530 329 531 
424 532 533 531 214 
425 242 534 536 428 
426 534 320 535 536 
427 536 535 204 205 
428 428 536 205 206 
429 16 503 539 177 
430 503 273 537 539 
431 539 537 214 538 
432 177 539 538 176 
433 185 186 542 541 
434 186 187 540 542 
435 542 540 286 385 
436 541 542 385 238 
437 119 120 545 544 
438 120 121 543 545 
439 545 543 282 378 
440 544 545 378 230 
441 123 124 548 547 
442 124 125 546 548 
443 548 546 283 382 
444 547 548 382 231 
445 189 190 551 550 
446 190 191 549 551 
447 551 549 287 381 
448 550 551 381 239 
449 193 194 554 553 
450 194 195 552 554 
451 554 552 288 377 
452 553 554 377 240 
453 10 116 556 479 
454 116 117 555 556 
455 556 555 281 401 
456 479 556 401 229 
457 127 128 559 558 
458 128 129 557 559 
459 559 557 284 387 
460 558 559 387 232 
461 222 482 563 562 
462 482 267 560 563 
463 563 560 333 561 
464 562 563 561 264 
465 244 430 566 565 
466 430 110 111 566 
467 566 111 112 564 
468 565 566 564 321 
469 255 522 569 568 
470 522 256 567 569 
471 569 567 258 489 
472 568 569 489 257 
473 236 570 571 486 
474 570 323 504 571 
475 571 504 16 178 
476 486 571 178 179 
477 223 572 574 573 
478 572 276 513 574 
479 574 513 62 63 
480 573 574 63 64 
481 277 340 577 576 
482 340 234 516 577 
483 577 516 227 575 
484 576 577 575 292 
485 243 578 581 580 
486 578 333 560 581 
487 581 560 267 579 
488 580 581 579 320 
489 226 447 584 583 
490 447 11 139 584 
491 584 139 140 582 
492 583 584 582 289 
493 280 585 587 529 
494 585 257 492 587 
495 587 492 290 586 
496 529 587 586 265 
497 249 588 590 354 
498 588 303 589 590 
499 590 589 160 161 
500 354 590 161 162 
501 318 591 594 593 
502 591 313 592 594 
503 594 592 22 23 
504 593 594 23 24 
505 246 595 597 358 
506 595 296 596 597 
507 597 596 66 67 
508 358 597 67 68 
509 269 598 600 518 
510 598 294 599 600 
511 600 599 199 200 
512 518 600 200 17 
513 292 601 604 576 
514 601 223 602 604 
515 604 602 296 603 
516 576 604 603 277 
517 223 601 606 572 
518 601 292 605 606 
519 606 605 261 453 
520 572 606 453 276 
521 312 607 610 609 
522 607 74 75 610 
523 610 75 76 608 
524 609 610 608 317 
525 257 585 613 568 
526 585 280 611 613 
527 613 611 324 612 
528 568 613 612 255 
529 330 614 617 616 
530 614 266 615 617 
531 617 615 295 347 
532 616 617 347 213 
533 197 198 619 618 
534 198 199 599 619 
535 619 599 294 399 
536 618 619 399 241 
537 248 443 622 621 
538 443 247 620 622 
539 622 620 329 530 
540 621 622 530 265 
541 230 367 623 544 
542 367 281 555 623 
543 623 555 117 118 
544 544 623 118 119 
545 231 372 624 547 
546 372 282 543 624 
547 624 543 121 122 
548 547 624 122 123 
549 232 389 625 558 
550 389 283 546 625 
551 625 546 125 126 
552 558 625 126 127 
553 233 393 627 626 
554 393 284 557 627 
555 627 557 129 130 
556 626 627 130 131 
557 238 392 628 541 
558 392 285 527 628 
559 628 527 183 184 
560 541 628 184 185 
561 239 390 629 550 
562 390 286 540 629 
563 629 540 187 188 
564 550 629 188 189 
565 240 374 630 553 
566 374 287 549 630 
567 630 549 191 192 
568 553 630 192 193 
569 241 369 631 618 
570 369 288 552 631 
571 631 552 195 196 
572 618 631 196 197 
573 263 632 634 462 
574 632 316 633 634 
575 634 633 300 337 
576 462 634 337 228 
577 176 538 636 175 
578 538 214 531 636 
579 636 531 329 635 
580 175 636 635 174 
581 246 637 641 640 
582 637 219 638 641 
583 641 638 244 639 
584 640 641 639 245 
585 300 633 644 643 
586 633 316 642 644 
587 644 642 333 578 
588 643 644 578 243 
589 133 134 647 646 
590 134 135 501 647 
591 647 501 279 645 
592 646 647 645 322 
593 251 648 651 650 
594 648 266 614 651 
595 651 614 330 649 
596 650 651 649 250 
597 224 476 652 406 
598 476 229 400 652 
599 652 400 294 598 
600 406 652 598 269 
601 253 473 653 521 
602 473 226 583 653 
603 653 583 289 345 
604 521 653 345 254 
605 258 654 656 490 
606 654 293 457 656 
607 656 457 259 655 
608 490 656 655 326 
609 235 657 658 525 
610 657 261 605 658 
611 658 605 292 575 
612 525 658 575 227 
613 255 612 660 523 
614 612 324 659 660 
615 660 659 273 474 
616 523 660 474 253 
617 158 159 662 460 
618 159 160 589 662 
619 662 589 303 661 
620 460 662 661 221 
621 50 663 666 49 
622 663 318 664 666 
623 666 664 315 665 
624 49 666 665 48 
625 78 667 669 77 
626 667 314 668 669 
627 669 668 317 608 
628 77 669 608 76 
629 272 342 671 670 
630 342 245 639 671 
631 671 639 244 565 
632 670 671 565 321 
633 64 65 672 573 
634 65 66 596 672 
635 672 596 296 602 
636 573 672 602 223 
637 261 657 674 454 
638 657 235 404 674 
639 674 404 328 673 
640 454 674 673 262 
641 6 104 677 676 
642 104 7 675 677 
643 677 675 244 638 
644 676 677 638 219 
645 1 678 681 212 
646 678 218 679 681 
647 681 679 242 680 
648 212 681 680 20 
649 12 396 683 145 
650 396 250 649 683 
651 683 649 330 682 
652 145 683 682 144 
653 142 684 685 141 
654 684 213 346 685 
655 685 346 289 582 
656 141 685 582 140 
657 256 468 686 567 
658 468 278 438 686 
659 686 438 293 654 
660 567 686 654 258 
661 147 148 689 397 
662 148 149 687 689 
663 689 687 275 688 
664 397 689 688 216 
665 298 409 692 691 
666 409 260 690 692 
667 692 690 218 678 
668 691 692 678 1 
669 80 693 695 79 
670 693 310 694 695 
671 695 694 314 667 
672 79 695 667 78 
673 48 665 698 47 
674 665 315 696 698 
675 698 696 311 697 
676 47 698 697 46 
677 290 699 702 701 
678 699 221 661 702 
679 702 661 303 700 
680 701 702 700 299 
681 218 703 704 679 
682 703 243 580 704 
683 704 580 320 534 
684 679 704 534 242 
685 169 445 707 168 
686 445 217 705 707 
687 707 705 274 706 
688 168 707 706 167 
689 202 203 708 481 
690 203 204 535 708 
691 708 535 320 579 
692 481 708 579 267 
693 46 697 711 45 
694 697 311 709 711 
695 711 709 309 710 
696 45 711 710 44 
697 82 712 714 81 
698 712 308 713 714 
699 714 713 310 693 
700 81 714 693 80 
701 9 432 717 108 
702 432 270 715 717 
703 717 715 331 716 
704 108 717 716 107 
705 18 208 720 426 
706 208 209 718 720 
707 720 718 332 719 
708 426 720 719 271 
709 251 439 721 648 
710 439 278 467 721 
711 721 467 295 615 
712 648 721 615 266 
713 226 472 724 448 
714 472 252 722 724 
715 724 722 304 723 
716 448 724 723 225 
717 236 485 726 725 
718 485 268 364 726 
719 726 364 322 645 
720 725 726 645 279 
721 154 412 728 153 
722 412 325 727 728 
723 728 727 151 152 
724 153 728 152 13 
725 162 163 730 355 
726 163 14 164 730 
727 730 164 165 729 
728 355 730 729 327 
729 44 710 733 43 
730 710 309 731 733 
731 733 731 302 732 
732 43 733 732 42 
733 318 663 735 591 
734 663 50 51 735 
735 735 51 52 734 
736 591 735 734 313 
737 30 31 738 737 
738 31 32 736 738 
739 738 736 302 731 
740 737 738 731 309 
741 82 739 742 712 
742 739 301 740 742 
743 742 740 92 741 
744 712 742 741 308 
745 28 29 744 743 
746 29 30 737 744 
747 744 737 309 709 
748 743 744 709 311 
749 92 93 746 741 
750 93 94 745 746 
751 746 745 310 713 
752 741 746 713 308 
753 245 341 747 640 
754 341 277 603 747 
755 747 603 296 595 
756 640 747 595 246 
757 222 562 748 519 
758 562 264 464 748 
759 748 464 262 673 
760 519 748 673 328 
761 6 676 749 508 
762 676 219 637 749 
763 749 637 246 360 
764 508 749 360 291 
765 312 609 752 751 
766 609 317 750 752 
767 752 750 98 99 
768 751 752 99 100 
769 250 395 754 650 
770 395 216 753 754 
771 754 753 319 440 
772 650 754 440 251 
773 94 95 756 745 
774 95 96 755 756 
775 756 755 314 694 
776 745 756 694 310 
777 26 27 758 757 
778 27 28 743 758 
779 758 743 311 696 
780 757 758 696 315 
781 131 132 759 626 
782 132 133 646 759 
783 759 646 322 363 
784 626 759 363 233 
785 248 760 761 444 
786 760 249 353 761 
787 761 353 274 705 
788 444 761 705 217 
789 24 25 762 593 
790 25 26 757 762 
791 762 757 315 664 
792 593 762 664 318 
793 96 97 763 755 
794 97 98 750 763 
795 763 750 317 668 
796 755 763 668 314 
797 114 511 764 113 
798 511 272 670 764 
799 764 670 321 564 
800 113 764 564 112 
801 247 497 765 620 
802 497 172 173 765 
803 765 173 174 635 
804 620 765 635 329 
805 248 621 767 766 
806 621 265 586 767 
807 767 586 290 701 
808 766 767 701 299 
809 213 684 768 616 
810 684 142 143 768 
811 768 143 144 682 
812 616 768 682 330 
813 244 675 770 431 
814 675 7 769 770 
815 770 769 331 715 
816 431 770 715 270 
817 242 427 772 680 
818 427 271 719 772 
819 772 719 332 771 
820 680 772 771 20 
821 20 771 773 211 
822 771 332 718 773 
823 773 718 209 210 
824 211 773 210 19 
825 7 105 774 769 
826 105 8 106 774 
827 774 106 107 716 
828 769 774 716 331 
829 273 659 775 537 
830 659 324 611 775 
831 775 611 280 532 
832 537 775 532 214 
833 149 150 776 687 
834 150 151 727 776 
835 776 727 325 411 
836 687 776 411 275 
837 243 703 777 643 
838 703 218 690 777 
839 777 690 260 334 
840 643 777 334 300 
841 279 500 780 725 
842 500 307 778 780 
843 780 778 304 779 
844 725 780 779 236 
845 167 706 781 166 
846 706 274 356 781 
847 781 356 327 729 
848 166 781 729 165 
849 248 766 782 760 
850 766 299 700 782 
851 782 700 303 588 
852 760 782 588 249 
853 237 456 783 414 
854 456 319 753 783 
855 783 753 216 688 
856 414 783 688 275 
857 137 449 784 499 
858 449 225 723 784 
859 784 723 304 778 
860 499 784 778 307 
861 259 459 785 655 
862 459 221 699 785 
863 785 699 290 491 
864 655 785 491 326 
865 54 408 787 53 
866 408 298 786 787 
867 787 786 313 734 
868 53 787 734 52 
869 74 607 789 73 
870 607 312 788 789 
871 789 788 297 494 
872 73 789 494 72 
873 100 101 790 751 
874 101 102 507 790 
875 790 507 297 788 
876 751 790 788 312 
877 1 21 791 691 
878 21 22 592 791 
879 791 592 313 786 
880 691 791 786 298 
881 92 740 793 91 
882 740 301 792 793 
883 793 792 305 419 
884 91 793 419 90 
885 32 33 795 736 
886 33 34 417 795 
887 795 417 306 794 
888 736 795 794 302 
889 236 779 796 570 
890 779 304 722 796 
891 796 722 252 505 
892 570 796 505 323 
893 42 732 797 41 
894 732 302 794 797 
895 797 794 306 422 
896 41 797 422 40 
897 82 83 798 739 
898 83 84 424 798 
899 798 424 305 792 
900 739 798 792 301 
901 263 465 799 632 
902 465 264 561 799 
903 799 561 333 642 
904 632 799 642 316 
$EndElements
