$MeshFormat
4.1 0 8
$EndMeshFormat
$PhysicalNames
2
1 2 "perimetro"
2 1 "dominio"
$EndPhysicalNames
$Entities
16 16 1 0
1 150 153.9 0 0 
2 170 158 0 0 
3 170 170 0 0 
4 163 170 0 0 
5 163 177 0 0 
6 240 177 0 0 
7 240 190 0 0 
8 0 190 0 0 
9 0 177 0 0 
10 77 177 0 0 
11 77 170 0 0 
12 70 170 0 0 
13 70 158 0 0 
14 90 153.9 0 0 
15 90 0 0 0 
16 150 0 0 0 
1 149.9999999 153.8999999 -1e-07 170.0000001 158.0000001 1e-07 1 2 2 1 -2 
2 169.9999999 157.9999999 -1e-07 170.0000001 170.0000001 1e-07 1 2 2 2 -3 
3 162.9999999 169.9999999 -1e-07 170.0000001 170.0000001 1e-07 1 2 2 3 -4 
4 162.9999999 169.9999999 -1e-07 163.0000001 177.0000001 1e-07 1 2 2 4 -5 
5 162.9999999 176.9999999 -1e-07 240.0000001 177.0000001 1e-07 1 2 2 5 -6 
6 239.9999999 176.9999999 -1e-07 240.0000001 190.0000001 1e-07 1 2 2 6 -7 
7 -9.999999406318238e-08 189.9999999 -1e-07 240.0000001 190.0000001 1e-07 1 2 2 7 -8 
8 -1e-07 176.9999999 -1e-07 1e-07 190.0000001 1e-07 1 2 2 8 -9 
9 -1.000000011686097e-07 176.9999999 -1e-07 77.00000009999999 177.0000001 1e-07 1 2 2 9 -10 
10 76.99999990000001 169.9999999 -1e-07 77.00000009999999 177.0000001 1e-07 1 2 2 10 -11 
11 69.99999990000001 169.9999999 -1e-07 77.00000009999999 170.0000001 1e-07 1 2 2 11 -12 
12 69.99999990000001 157.9999999 -1e-07 70.00000009999999 170.0000001 1e-07 1 2 2 12 -13 
13 69.99999990000001 153.8999999 -1e-07 90.00000009999999 158.0000001 1e-07 1 2 2 13 -14 
14 89.99999990000001 -9.999999406318238e-08 -1e-07 90.00000009999999 153.9000001 1e-07 1 2 2 14 -15 
15 89.99999990000001 -1e-07 -1e-07 150.0000001 1e-07 1e-07 1 2 2 15 -16 
16 149.9999999 -9.999999406318238e-08 -1e-07 150.0000001 153.9000001 1e-07 1 2 2 16 -1 
1 -9.999999406318238e-08 -9.999999406318238e-08 -1e-07 240.0000001 190.0000001 1e-07 1 1 16 1 2 3 4 5 6 7 8 9 10 11 12 13 14 15 16 
$EndEntities
$Nodes
33 1007 1 1007
0 1 0 1
1
150 153.9 0
0 2 0 1
2
170 158 0
0 3 0 1
3
170 170 0
0 4 0 1
4
163 170 0
0 5 0 1
5
163 177 0
0 6 0 1
6
240 177 0
0 7 0 1
7
240 190 0
0 8 0 1
8
0 190 0
0 9 0 1
9
0 177 0
0 10 0 1
10
77 177 0
0 11 0 1
11
77 170 0
0 12 0 1
12
70 170 0
0 13 0 1
13
70 158 0
0 14 0 1
14
90 153.9 0
0 15 0 1
15
90 0 0
0 16 0 1
16
150 0 0
1 1 0 7
17
18
19
20
21
22
23
152.5 154.4125 0
155 154.925 0
157.5 155.4375 0
160 155.95 0
162.5 156.4625 0
165 156.975 0
167.5 157.4875 0
1 2 0 3
24
25
26
170 161 0
170 164 0
170 167 0
1 3 0 1
27
166.5 170 0
1 4 0 1
28
163 173.5 0
1 5 0 15
29
30
31
32
33
34
35
36
37
38
39
40
41
42
43
167.8125 177 0
172.625 177 0
177.4375 177 0
182.2500000000001 177 0
187.0625000000001 177 0
191.8750000000001 177 0
196.6875000000001 177 0
201.5000000000001 177 0
206.3125000000001 177 0
211.1250000000001 177 0
215.9375000000001 177 0
220.7500000000001 177 0
225.5625000000001 177 0
230.375 177 0
235.1875 177 0
1 6 0 3
44
45
46
240 180.25 0
240 183.5 0
240 186.75 0
1 7 0 47
47
48
49
50
51
52
53
54
55
56
57
58
59
60
61
62
63
64
65
66
67
68
69
70
71
72
73
74
75
76
77
78
79
80
81
82
83
84
85
86
87
88
89
90
91
92
93
235 190 0
230 190 0
225 190 0
220 190 0
215 190 0
210 190 0
205 190 0
200 190 0
195 190 0
190 190 0
185 190 0
180 190 0
175 190 0
170 190 0
165 190 0
160 190 0
155 190 0
150 190 0
145 190 0
140 190 0
135 190 0
130 190 0
125 190 0
120 190 0
115 190 0
110 190 0
105 190 0
100 190 0
95 190 0
90 190 0
85 190 0
80 190 0
75 190 0
70 190 0
65 190 0
60 190 0
55 190 0
50 190 0
45 190 0
40 190 0
35 190 0
30 190 0
25 190 0
20 190 0
15 190 0
10 190 0
5 190 0
1 8 0 3
94
95
96
0 186.75 0
0 183.5 0
0 180.25 0
1 9 0 15
97
98
99
100
101
102
103
104
105
106
107
108
109
110
111
4.81250000000001 177 0
9.62500000000002 177 0
14.43750000000004 177 0
19.25000000000006 177 0
24.06250000000007 177 0
28.87500000000009 177 0
33.68750000000011 177 0
38.50000000000013 177 0
43.31250000000011 177 0
48.12500000000011 177 0
52.93750000000009 177 0
57.75000000000007 177 0
62.56250000000005 177 0
67.37500000000003 177 0
72.18750000000001 177 0
1 10 0 1
112
77 173.5 0
1 11 0 1
113
73.5 170 0
1 12 0 3
114
115
116
70 167 0
70 164 0
70 161 0
1 13 0 7
117
118
119
120
121
122
123
72.5 157.4875 0
75 156.975 0
77.5 156.4625 0
80.00000000000001 155.95 0
82.5 155.4375 0
85 154.925 0
87.5 154.4125 0
1 14 0 31
124
125
126
127
128
129
130
131
132
133
134
135
136
137
138
139
140
141
142
143
144
145
146
147
148
149
150
151
152
153
154
90 149.090625 0
90 144.28125 0
90 139.471875 0
90 134.6625 0
90 129.853125 0
90 125.04375 0
90 120.234375 0
90 115.425 0
90 110.6156250000001 0
90 105.8062500000001 0
90 100.9968750000001 0
90 96.18750000000011 0
90 91.37812500000013 0
90 86.56875000000014 0
90 81.75937500000015 0
90 76.95000000000016 0
90 72.14062500000014 0
90 67.33125000000013 0
90 62.52187500000011 0
90 57.71250000000008 0
90 52.90312500000005 0
90 48.09375000000003 0
90 43.28437500000001 0
90 38.47500000000001 0
90 33.66562499999999 0
90 28.85624999999997 0
90 24.04687499999997 0
90 19.23749999999995 0
90 14.42812499999997 0
90 9.618749999999977 0
90 4.809374999999989 0
1 15 0 11
155
156
157
158
159
160
161
162
163
164
165
95 0 0
100 0 0
105 0 0
110 0 0
115 0 0
120 0 0
125 0 0
130 0 0
135 0 0
140 0 0
145 0 0
1 16 0 31
166
167
168
169
170
171
172
173
174
175
176
177
178
179
180
181
182
183
184
185
186
187
188
189
190
191
192
193
194
195
196
150 4.809374999999994 0
150 9.618749999999988 0
150 14.42812499999998 0
150 19.23749999999998 0
150 24.04687499999997 0
150 28.85624999999997 0
150 33.66562499999996 0
150 38.47499999999996 0
150 43.28437499999995 0
150 48.09374999999994 0
150 52.90312499999992 0
150 57.7124999999999 0
150 62.52187499999989 0
150 67.33124999999987 0
150 72.14062499999986 0
150 76.94999999999985 0
150 81.75937499999986 0
150 86.56874999999988 0
150 91.3781249999999 0
150 96.18749999999993 0
150 100.996875 0
150 105.80625 0
150 110.615625 0
150 115.425 0
150 120.234375 0
150 125.04375 0
150 129.853125 0
150 134.6625000000001 0
150 139.471875 0
150 144.28125 0
150 149.090625 0
2 1 0 811
197
198
199
200
201
202
203
204
205
206
207
208
209
210
211
212
213
214
215
216
217
218
219
220
221
222
223
224
225
226
227
228
229
230
231
232
233
234
235
236
237
238
239
240
241
242
243
244
245
246
247
248
249
250
251
252
253
254
255
256
257
258
259
260
261
262
263
264
265
266
267
268
269
270
271
272
273
274
275
276
277
278
279
280
281
282
283
284
285
286
287
288
289
290
291
292
293
294
295
296
297
298
299
300
301
302
303
304
305
306
307
308
309
310
311
312
313
314
315
316
317
318
319
320
321
322
323
324
325
326
327
328
329
330
331
332
333
334
335
336
337
338
339
340
341
342
343
344
345
346
347
348
349
350
351
352
353
354
355
356
357
358
359
360
361
362
363
364
365
366
367
368
369
370
371
372
373
374
375
376
377
378
379
380
381
382
383
384
385
386
387
388
389
390
391
392
393
394
395
396
397
398
399
400
401
402
403
404
405
406
407
408
409
410
411
412
413
414
415
416
417
418
419
420
421
422
423
424
425
426
427
428
429
430
431
432
433
434
435
436
437
438
439
440
441
442
443
444
445
446
447
448
449
450
451
452
453
454
455
456
457
458
459
460
461
462
463
464
465
466
467
468
469
470
471
472
473
474
475
476
477
478
479
480
481
482
483
484
485
486
487
488
489
490
491
492
493
494
495
496
497
498
499
500
501
502
503
504
505
506
507
508
509
510
511
512
513
514
515
516
517
518
519
520
521
522
523
524
525
526
527
528
529
530
531
532
533
534
535
536
537
538
539
540
541
542
543
544
545
546
547
548
549
550
551
552
553
554
555
556
557
558
559
560
561
562
563
564
565
566
567
568
569
570
571
572
573
574
575
576
577
578
579
580
581
582
583
584
585
586
587
588
589
590
591
592
593
594
595
596
597
598
599
600
601
602
603
604
605
606
607
608
609
610
611
612
613
614
615
616
617
618
619
620
621
622
623
624
625
626
627
628
629
630
631
632
633
634
635
636
637
638
639
640
641
642
643
644
645
646
647
648
649
650
651
652
653
654
655
656
657
658
659
660
661
662
663
664
665
666
667
668
669
670
671
672
673
674
675
676
677
678
679
680
681
682
683
684
685
686
687
688
689
690
691
692
693
694
695
696
697
698
699
700
701
702
703
704
705
706
707
708
709
710
711
712
713
714
715
716
717
718
719
720
721
722
723
724
725
726
727
728
729
730
731
732
733
734
735
736
737
738
739
740
741
742
743
744
745
746
747
748
749
750
751
752
753
754
755
756
757
758
759
760
761
762
763
764
765
766
767
768
769
770
771
772
773
774
775
776
777
778
779
780
781
782
783
784
785
786
787
788
789
790
791
792
793
794
795
796
797
798
799
800
801
802
803
804
805
806
807
808
809
810
811
812
813
814
815
816
817
818
819
820
821
822
823
824
825
826
827
828
829
830
831
832
833
834
835
836
837
838
839
840
841
842
843
844
845
846
847
848
849
850
851
852
853
854
855
856
857
858
859
860
861
862
863
864
865
866
867
868
869
870
871
872
873
874
875
876
877
878
879
880
881
882
883
884
885
886
887
888
889
890
891
892
893
894
895
896
897
898
899
900
901
902
903
904
905
906
907
908
909
910
911
912
913
914
915
916
917
918
919
920
921
922
923
924
925
926
927
928
929
930
931
932
933
934
935
936
937
938
939
940
941
942
943
944
945
946
947
948
949
950
951
952
953
954
955
956
957
958
959
960
961
962
963
964
965
966
967
968
969
970
971
972
973
974
975
976
977
978
979
980
981
982
983
984
985
986
987
988
989
990
991
992
993
994
995
996
997
998
999
1000
1001
1002
1003
1004
1005
1006
1007
143.4322622105032 147.5595675191707 0
96.2818033782459 147.4610111882301 0
98.76407295811937 96.84475569308495 0
141.8666242840223 51.46547053490744 0
141.8166366558174 127.7184438345268 0
141.8063523842373 80.35377227020524 0
98.8160264394096 33.62109847066463 0
95.22518940018584 154.4513101049404 0
104.1069560514278 150.9949476959592 0
100.0573817879174 128.8568543593907 0
145.2025375466471 154.586849157888 0
137.2792917968212 151.5180283769247 0
98.66395601636364 58.69549942267913 0
141.7144525203909 99.51762275992766 0
98.83622819387972 77.67657773021372 0
141.8381181753874 32.19072092277237 0
140.1870532241769 157.8603636609115 0
130.6312616298424 155.466239264614 0
100.6356185700181 157.5509695054331 0
84.60449017194983 172.1969483122637 0
156.0566254301925 171.2398115884194 0
130.4386641236475 148.2357988098702 0
121.9344597127023 8.162571540791234 0
133.1419898803167 163.2876428601617 0
114.8630126836794 182.3319394930714 0
141.4743398148131 167.6845790708625 0
110.4599441563682 156.968175331139 0
109.6177179802657 149.2117877125777 0
90.55107295983811 159.1525952282227 0
150.5918406090395 159.3206614453487 0
106.4287245997709 161.9897625757644 0
101.3438293484543 166.5602278638913 0
106.1848863049252 10.70045748094893 0
129.4708667756486 171.9863691458983 0
116.7158947030807 160.6377671124394 0
143.3863951408172 183.2634342267155 0
97.38341118726646 181.4479094351399 0
139.5939192125019 15.97119896664442 0
113.064520764998 166.284227974485 0
122.9600097427585 150.5498625050516 0
126.224566678231 145.0063211121634 0
130.5675495984736 139.7235104524844 0
125.1713916313716 132.7900738092255 0
79.21009753003746 161.9983054922821 0
161.3258505284495 160.9469413111585 0
120.1086915732222 140.5442595369663 0
118.0047708150165 130.5894561983202 0
125.2136532711487 122.8028532195616 0
117.2215325129343 124.0537352932475 0
125.0073282345725 113.6820387419663 0
116.5783804757851 115.0494042622411 0
124.9368828396409 104.309036418567 0
116.3419585960356 105.595579039812 0
124.9852650436752 94.82480163483788 0
116.3398257509914 96.06352239084595 0
107.9830663177923 116.2585305228699 0
125.0938854095882 85.29861140540172 0
116.428276235301 86.54473477242571 0
125.2158169957232 75.74861875257122 0
116.5416454929673 76.99740786005493 0
125.2797175225127 66.09919254417684 0
116.5703306554048 67.3552152762623 0
125.164836052649 56.06604415813891 0
116.2271232080425 57.31403905573499 0
125.1675391719766 45.53967841634486 0
114.630825113134 45.25861243401015 0
105.907371346672 49.46982466888025 0
125.7539210457187 35.16335167814032 0
117.4233397109168 33.79764216403179 0
119.1852157864731 24.49919641429344 0
133.3791497321133 111.6656672078379 0
133.6349537144015 63.92199309642164 0
126.8702153200704 25.89309823200693 0
107.6618413228715 68.01931463361269 0
107.6177528452779 87.17937437751098 0
112.4021292217759 135.4304607124474 0
97.29554970353001 138.7784807262395 0
109.188392872786 30.38416829919768 0
111.3165567706485 21.8139467631043 0
140.7846250025354 138.2438570610929 0
81.75515161808218 167.5180801569915 0
88.29410304256481 169.2211899561444 0
156.192246797821 165.2171795212328 0
148.777094552471 170.2088685195359 0
84.92779392687385 181.8776047593084 0
155.0123375894807 179.7778000083711 0
108.0394537556438 182.1717532898475 0
134.3259502980379 181.9504499303513 0
125.5655793679539 179.8094763631687 0
133.4246485211587 92.69627923965979 0
123.6793026262497 162.8204158525524 0
120.8760632946642 169.4470801717736 0
99.12125650832377 116.5761957310555 0
115.2491533152991 7.878556745430046 0
98.84334402359676 106.4412315524819 0
107.6576971023913 106.3180905522984 0
116.8451418923468 146.7810752511753 0
133.5805511665949 73.51705453636083 0
98.10921783980757 49.64476158631494 0
97.95320778045055 41.44458087166029 0
141.5907143291412 23.25403917278186 0
98.80884964836784 67.97630487842072 0
107.1759176878997 58.232076677283 0
141.8513062963728 41.69921091186514 0
98.80119378932277 87.12655158371817 0
107.6749680904062 77.49682912691365 0
141.7730597998752 118.3884283247906 0
109.3937217190776 125.7065689241728 0
133.5240640747411 120.8694182170127 0
134.077929937456 129.5991736569356 0
121.1891624690495 16.12373684753138 0
155.7771224303781 160.0308903823515 0
141.7164488582675 108.8911612005352 0
85.5540128988664 160.3078452393342 0
133.0711356563318 9.326013766381124 0
107.534013228252 173.2981769949158 0
96.88811125880875 161.6611498861279 0
144.5789706708934 162.1500682983444 0
97.86978478545379 15.53676243778429 0
133.3690972151475 102.1019196598727 0
99.6961387036576 175.0251054690558 0
141.7426226407308 89.81552301592922 0
138.0101366437196 174.4319749292623 0
133.490204193344 83.02807349321995 0
141.8215439412567 70.61003579920134 0
89.75539090152452 176.4393935622981 0
146.1813052852825 176.7448752854192 0
94.3515962796712 170.4006110507503 0
141.8428946453442 60.97893794498576 0
133.6032256226008 54.00277278979141 0
107.5874164374817 96.62803767089602 0
103.3074870017804 142.9903837175648 0
133.6366381455146 44.03610820892749 0
92.18467818920266 163.9684850661582 0
150.0820678608199 164.3331199735674 0
134.4740285623184 145.0111471044136 0
133.835942953909 34.30848837379301 0
134.1047698536844 25.62147474630933 0
134.1386437646585 19.68235427215495 0
74.57651653995799 183.3014548054966 0
165.4346057621564 183.078184542731 0
165.0281631216487 160.3371261494561 0
74.85808900500101 160.5923511807337 0
220.5462118180131 183.4982169323229 0
19.45378818198699 183.4982169323229 0
230.24633906123 183.4997157030249 0
9.753660938769983 183.4997157030249 0
29.26645027780276 183.4973897351022 0
210.7335497221981 183.4973897350987 0
39.08456843810356 183.497158554941 0
200.9154585434687 183.4971376907141 0
67.91264238115085 183.4626268468936 0
172.0916801625574 183.4280582433121 0
124.5861758077585 158.1041682670812 0
48.90676090560751 183.4966906118061 0
191.0935228790118 183.4962127927528 0
105.2955067281274 135.9826669350334 0
113.9404121686781 152.0627650085283 0
98.45720180988266 9.115501465382152 0
58.67066777682689 183.4922950716492 0
181.3303609117775 183.4870473036481 0
110.5814938134929 144.0919741650214 0
134.7268735941497 135.716258156916 0
75.43667790719873 165.5525270289641 0
162.3624503848222 165.169863065348 0
140.7320194802343 5.970910904493536 0
90.43212012083509 184.766325123399 0
149.3683329347256 184.7460150291858 0
113.4983805782014 13.71367596558099 0
128.8299798959848 17.99647985598993 0
117.3627175799764 176.6997607456204 0
94.20872121801911 158.4824813045039 0
146.7688839638074 158.7330454507963 0
119.8367361728297 155.4658978067696 0
100.8153007720742 25.76480439827627 0
107.3483027665487 39.04501092689087 0
103.6154116360599 18.37853500988886 0
103.8469074199809 43.26711110831343 0
86.9866787932956 165.4383683580784 0
98.73640283236574 63.33590215054993 0
102.9199368521317 58.46378804998108 0
107.4188795053856 63.12569565544786 0
103.2353454856197 67.99780975601671 0
103.0776411688757 63.2307989029989 0
107.8203817100919 111.2883105375841 0
103.5521614130581 116.4173631269627 0
98.98230026596026 111.5087136417687 0
103.250520562994 106.3796610523901 0
103.401340988026 111.3985120896764 0
131.3064283279827 167.63700600303 0
125.1734650351564 170.716724658836 0
122.2776829604569 166.133748012163 0
128.4106462532832 163.054029356357 0
126.7920556442198 166.8853770075965 0
99.58931914812061 122.7165250452231 0
108.688394018435 120.9825497235213 0
104.7255517534975 127.2817116417817 0
104.1388565832778 121.8495373843722 0
111.9998278492135 105.9568347960552 0
116.4601695359104 110.3224916510266 0
112.2807233967887 115.6539673925555 0
112.1402756230011 110.8054010943054 0
98.81871099160124 82.40156465696595 0
103.2555981421429 77.58670342856368 0
107.646360467842 82.33810175221231 0
103.2094733173003 87.15296298061457 0
103.2325357297216 82.36983320458913 0
164.2173028810782 180.0390922713655 0
162.7173028810782 186.5390922713655 0
157.5061687947403 184.8889000041855 0
159.0061687947403 178.3889000041855 0
160.8617358379093 182.4639961377755 0
80.96389696343692 179.4388023796542 0
82.46389696343692 185.9388023796542 0
77.288258269979 186.6507274027483 0
75.788258269979 180.1507274027483 0
79.12607761670796 183.0447648912013 0
116.3408921735135 100.829550715329 0
107.6225567699366 101.4730641115972 0
111.9636210942366 96.34578003087098 0
111.981724471725 101.1513074134631 0
97.02386749166439 172.712858259903 0
98.53977494546203 178.2365074520978 0
93.56940104439549 178.943651498719 0
92.05349359059787 173.4200023065242 0
95.29663426802995 175.828254879311 0
103.8862769741126 164.2749952198278 0
109.7466226823845 164.1369952751247 0
110.299266996625 169.7912024847004 0
104.4389212883532 169.9292024294035 0
107.0927719853688 167.0330988522641 0
106.5416445172858 53.85095067308163 0
98.38658692808559 54.17013050449704 0
102.0082945932398 49.5572931275976 0
102.4641157226857 54.01054058878933 0
93.14090168912296 145.8711305941151 0
95.75349638921587 150.9561606465853 0
92.61259470009293 154.1756550524702 0
92.87674819460793 150.0233928232926 0
147.6012687733235 154.243424578944 0
144.3173998785751 151.0732083385294 0
146.7161311052516 145.9204087595853 0
147.1586999392875 150.0819166692647 0
107.6684047066389 72.75807188026317 0
98.82253892112377 72.82644130431721 0
103.2454718138813 72.79225659229019 0
72.71833895359936 164.7762635144821 0
76.21833895359936 167.7762635144821 0
73.10916947679968 167.388131757241 0
162.6812251924111 167.584931532674 0
166.1812251924111 164.584931532674 0
166.3406125962055 167.292465766337 0
139.7422382292664 171.0582770000624 0
145.1257171836421 168.9467237951991 0
147.4791999188767 173.4768719024775 0
142.0957209645011 175.5884251073408 0
143.6107190740716 172.26757445127 0
127.5182230718013 175.8979227545335 0
121.4641484739652 178.2546185543945 0
119.1193904373203 173.073420458697 0
123.3188067545608 174.4856716066153 0
133.7405017096841 173.2091720375803 0
136.1680434708788 178.1912124298068 0
129.9457648329959 180.87996314676 0
131.84313327134 177.0445675921701 0
110.8979254704268 130.5685148183101 0
108.8488179749517 135.7065638237404 0
102.6764442580224 132.4197606472121 0
106.7871848642246 131.4941377327611 0
235.123169530615 183.4998578515124 0
230.310669530615 180.2498578515124 0
235.1553347653075 180.2499289257562 0
9.689330469384998 180.2498578515124 0
4.876830469384998 183.4998578515124 0
4.844665234692513 180.2499289257562 0
230.123169530615 186.7498578515124 0
235.0615847653075 186.7499289257562 0
9.876830469384998 186.7498578515124 0
4.938415234692513 186.7499289257562 0
133.8009970060985 125.2342959369741 0
137.6485619373081 119.6289232709016 0
141.7948482278463 123.0534360796587 0
137.9472832966367 128.6588087457312 0
137.7979226169724 124.1438660083164 0
116.3987269317237 62.33462716599865 0
112.1160859891382 67.68726495493749 0
111.7015204479711 57.77305786650899 0
111.9088032185546 62.73016141072324 0
133.3741234736304 106.8837934338553 0
137.5417748677692 100.8097712099002 0
141.7154506893292 104.2043919802314 0
137.5477992951904 110.2784142041865 0
137.5447870814798 105.5440927070433 0
116.4849608641342 81.77107131624032 0
112.0230145402894 86.86205457496834 0
112.1083067916867 77.24711849348429 0
112.0656606659881 82.05458653422633 0
133.4574263572513 87.86217636643987 0
137.6482782887906 81.69092288171259 0
141.7744875124841 85.08464764306723 0
137.5836355809448 91.2559011277945 0
137.6159569348677 86.47341200475356 0
133.6190896685011 58.96238294310652 0
137.7349249533115 52.73412166234942 0
141.8547594646832 56.22220423994659 0
137.7389241798728 62.4504655207037 0
137.7369245665922 57.59229359152656 0
158.5514864794138 160.488915846755 0
161.8441504566359 163.0584021882533 0
159.2773485913216 165.1935212932904 0
155.9846846140996 162.6240349517921 0
158.9144175353677 162.8412185700227 0
141.7447543290714 113.6397947626629 0
133.4516069034272 116.2675427124253 0
137.5981806162493 114.9536687375441 0
122.782789683977 184.9047381815843 0
117.4315063418397 186.1659697465357 0
116.1128651318279 179.5158501193459 0
119.4478274079024 182.2102941504651 0
141.6931975704086 186.6317171133578 0
132.162975149019 185.9752249651756 0
138.8561727194275 182.6069420785334 0
136.9280863597138 186.3034710392667 0
102.7114324714551 181.8098313624937 0
109.0197268778219 186.0858766449237 0
98.69170559363323 185.7239547175699 0
103.8557162357276 185.9049156812468 0
111.4512332196616 182.2518463914594 0
113.2256166098308 186.1259231957297 0
104.3014968649539 139.4865253262991 0
100.3015183526552 140.8844322219022 0
98.67646574572373 133.8176675428151 0
101.4889813053388 136.6520964345571 0
103.6150759659548 174.1616412319858 0
107.7867334919479 177.7349651423816 0
103.163254218705 177.9857362972397 0
127.472882416498 185.43998157338 0
93.64777485176501 136.7204903631198 0
95.02869089395872 126.9503021796954 0
94.33823287286187 131.8353962714075 0
133.6077524404982 68.71952381639123 0
141.8322192933004 65.79448687209356 0
137.7010475539258 72.06354516778109 0
137.7199858668993 67.25700534424239 0
133.3968728681531 97.39909944976624 0
141.7285375805609 94.66657288792842 0
137.562705224357 96.03283616884734 0
144.7838502130498 180.0041547560674 0
140.4759468419643 179.0976835929371 0
94.56062825416188 116.0005978655278 0
94.7946595740603 121.4754500226116 0
87.67995702385447 183.3219649413537 0
90.21606006041755 187.3831625616995 0
86.33997851192723 186.6609824706769 0
149.6841664673628 187.3730075145929 0
152.1903352621031 182.2619075187785 0
153.5951676310516 186.1309537593892 0
118.5918065140007 8.020564143110647 0
112.6245766576496 3.939278372715023 0
120.9672298563511 4.081285770395624 0
116.7959032570004 4.010282071555338 0
133.6199318840577 49.01944049935945 0
137.7439722209437 42.86765956039631 0
141.8589652901975 46.5823407233863 0
137.7394485871276 47.80089061137286 0
145.9083183279087 126.3810969172634 0
145.8865298999376 116.9067141623953 0
145.8974241139231 121.6439055398293 0
94.42167201179838 106.123740776241 0
94.49115013298012 111.0621693208844 0
94.05460891990379 48.86925579315749 0
94.33197800818182 58.20399971133961 0
94.1932934640428 53.53662775224853 0
93.97660389022528 39.95979043583014 0
98.03121281012906 45.54467122898762 0
94.01560640506452 44.41452311449382 0
141.3006308291764 132.9811504478099 0
145.3923125012677 136.4531785305465 0
145.6503154145882 131.417137723905 0
94.4080132197048 31.2386742353323 0
98.38461710993008 37.53283967116246 0
94.19230855496502 35.59923233558123 0
94.41811409693986 77.31328886510694 0
94.40059689466139 86.84765079185915 0
94.40935549580061 82.08046982848305 0
94.38203647905968 96.51612784654253 0
98.80370849085807 101.6429936227834 0
94.40185424542904 101.3199343113917 0
145.9256531481864 40.08710545593254 0
145.9333121420111 49.77961026745369 0
145.9294826450988 44.93335786169311 0
141.8447122358801 36.94496591731875 0
145.9190590876937 30.52348546138617 0
145.92235611794 35.30529545865934 0
94.40442482418392 67.65377743921042 0
94.41126946056188 72.48353315215867 0
94.36820141618287 62.92888857527501 0
98.78263337372107 91.98565363840156 0
94.39131668686053 91.68188931920083 0
110.269098229903 47.36421855144519 0
115.4289741605883 51.28632574487257 0
110.9853093389371 52.56863820897709 0
125.2477672591179 70.92390564837403 0
129.4573356184571 65.01059282029925 0
129.398184081159 74.63283664446602 0
129.4277598498081 69.82171473238263 0
119.8991821425553 45.39914542517749 0
125.1661876123128 50.80286128724188 0
120.6959796303457 56.69004160693694 0
120.2975808864505 51.04459351605723 0
116.5559880741861 72.17631156815861 0
112.1121963904125 72.46719172421089 0
125.2222767875808 61.08261835115788 0
120.9250240889588 66.72720391021957 0
120.8105018596522 61.70862275857826 0
120.8787312443453 76.37301330631308 0
120.901877666652 71.55010860826633 0
107.6025846413798 91.9037060242035 0
116.3840509931462 91.30412858163582 0
111.993317817263 91.60391730291967 0
116.0270824120254 39.52812729902097 0
121.5886303783177 34.48049692108606 0
125.4607301088476 40.35151504724259 0
120.7439062604365 39.93982117313178 0
125.1548512026557 80.52361507898647 0
120.7610808224446 85.92167308891371 0
120.8199060333949 81.1473431976134 0
113.307627116006 124.8801521087101 0
117.6131516639754 127.3215957457838 0
115.2034500183962 133.0099584553838 0
114.2555385672011 128.945055282047 0
95.40765038603712 22.50115219913812 0
99.8156636057419 29.69295143447044 0
94.90783180287096 26.86991321723521 0
141.7144162522642 27.72238004777711 0
145.7953571645706 21.24576958639092 0
145.8572081261321 25.88462752388853 0
113.3058662918514 32.09090523161473 0
110.9895639398414 42.15181168045051 0
108.2683478196674 34.71458961304427 0
112.1477151158464 37.12135845603262 0
125.0395752266317 90.0617065201198 0
120.6625453973333 95.4441620128419 0
120.711813109889 90.6829175508778 0
87.6403909179302 167.3297791571114 0
86.44929660725732 170.709069134204 0
83.17982089501601 169.8575142346276 0
84.3709152056889 166.4782242575349 0
85.41010590647311 168.5936466958695 0
153.1371573293204 164.7751497474001 0
156.1244361140068 168.2284955548261 0
152.4168599913317 170.7243400539776 0
149.4295812066455 167.2709942465517 0
152.7770086603261 167.7497449006889 0
110.2524748217172 26.09905753115099 0
115.2508862785608 23.15657158869887 0
118.3042777486949 29.1484192891626 0
114.2783762852061 27.6237384101568 0
133.7362905497118 39.17229829136025 0
137.8370305646482 33.24960464828268 0
137.7905013927959 38.05863210433949 0
123.0277155532717 25.19614732315019 0
126.3120681828945 30.52822495507363 0
122.3081729657947 29.83832212211811 0
140.5923167708215 19.61261906971313 0
144.7969596062509 12.79497448332221 0
145.2961583854108 17.02037203485656 0
124.9610739416581 99.56691902670245 0
120.6394207178383 104.9523077291895 0
120.6509830575858 100.1982348710157 0
124.9721055371067 108.9955375802667 0
120.7928543551788 114.3657215021037 0
120.7161375365085 109.6590146156466 0
145.8582244291338 107.3487056002676 0
145.8572262601954 97.85256137996379 0
145.8577253446646 102.6006334901157 0
116.8999564943597 119.5515697777443 0
112.7941752563974 120.2670597506328 0
133.9703564037967 29.96498156005117 0
137.8477420914128 24.4377569595456 0
137.8423863280305 28.84368080391413 0
133.5353776799694 78.27256401479039 0
141.813948162747 75.48190403470329 0
137.6746629213582 76.87723402474684 0
80.80224508597492 174.5984741561319 0
79.37757580904109 168.7590400784957 0
80.089910447508 171.6787571173138 0
125.1104907528606 118.2424459807639 0
121.2175928920415 123.4282942564045 0
121.0052236236101 118.8970078792541 0
123.1666291257266 142.7752903245649 0
124.5922882104948 147.7780918086075 0
119.9025758175527 148.6654688781134 0
118.4769167327845 143.6626673940708 0
121.5346024716396 145.7203796013391 0
129.3688586729449 121.8361357182872 0
129.1932389833429 112.6738529749021 0
129.2810488281439 117.2549943465946 0
96.78867654088795 143.1197459572348 0
93.39433827044397 141.2958104786174 0
145.8713113203654 88.19213650796455 0
145.9031761921186 78.65188613510254 0
145.887243756242 83.42201132153355 0
129.1529900273942 103.2054780392199 0
129.1731145053685 107.939665507061 0
125.1925224512601 127.7964635143936 0
129.6246607844138 131.1946237330805 0
129.4967597286793 126.5153797256838 0
121.5880812231941 131.6897650037728 0
122.6400416022969 136.6671666730959 0
116.255410397499 137.9873601247069 0
118.9217458103466 134.8385625642399 0
129.2920448014661 84.16334244931082 0
129.204956782417 93.76054043724884 0
129.2485007919415 88.96194144327984 0
98.76186491441342 159.6060596957805 0
103.5321715848945 159.7703660405988 0
99.11597030363154 164.1106888750096 0
101.324070944263 161.9405274578042 0
121.4028370576178 127.5590296300887 0
142.1084436065193 142.9017122901318 0
146.0542218032596 141.1867936450659 0
143.0266552428533 164.9173236846034 0
137.3081648475649 165.4861109655121 0
136.6645215522468 160.5740032605366 0
142.3830119475351 160.005215979628 0
139.84558839755 162.74566347257 0
145.8723771645357 112.1277098813314 0
103.1757446978006 96.73639668199048 0
103.1926090075505 91.94467983130252 0
145.9214473226721 59.34571897249282 0
145.9273797323416 54.56266461997325 0
129.3840308376249 55.03440847396516 0
129.420683228041 60.0225006471322 0
131.5355678281659 4.663006883190562 0
127.502797684517 8.744292653586172 0
126.2513988422585 4.372146326793086 0
120.1975986646652 161.7290914824959 0
116.9702920298311 167.8656540731293 0
114.8902077340394 163.4609975434622 0
118.5839453472481 164.7973727778126 0
113.5879194297245 158.8029712217892 0
108.4443343780696 159.4789689534517 0
111.6672710560545 161.4699832484569 0
107.283450103898 153.9815615135491 0
102.3712873107229 154.2729586006962 0
105.4078108443963 156.8759637770739 0
138.733172510499 154.6891960189181 0
131.8866257550796 159.3769410623878 0
133.9552767133318 153.4921338207693 0
135.3098991327893 157.0330685406529 0
129.1789734049056 98.48300923823435 0
140.3557770036622 149.5387979480477 0
142.694795385412 156.2236064093998 0
141.5252861945371 152.8812021787237 0
97.93040398510198 156.0011398051868 0
100.1943797148368 149.2279794420947 0
99.0623918499694 152.6145596236407 0
126.7956356863004 153.0080508848328 0
128.3316154009393 146.6210599610168 0
130.534962876745 151.8510190372421 0
127.5636255436199 149.8145554229248 0
94.71695530910247 156.4668957047222 0
92.3798970889286 158.8175382663633 0
90.27553647991905 156.5262976141113 0
92.49624589451076 156.4965966594168 0
150.2959203045198 156.6103307226743 0
148.6803622864235 159.0268534480725 0
145.9857107552272 156.6599473043422 0
148.1408155298735 156.6351390135083 0
99.22860090494133 4.557750732691076 0
94.22860090494133 9.367125732691065 0
94.61430045247066 4.683562866345525 0
135.5243332786245 169.3476415015461 0
159.5283127150962 170.6199057942097 0
159.4028306532089 167.90671354375 0
80.48262457405983 164.7581928246368 0
77.32338771861809 163.7754162606231 0
78.35048176382959 166.2672281695594 0
145.8642687902804 93.02234894396416 0
127.8694706149226 136.256792130855 0
128.3960581383523 142.3649157823239 0
125.5180498703246 139.5160412277099 0
103.7072215266041 146.992665706762 0
100.247949033746 145.0562058319984 0
89.58567849124913 164.7034267121183 0
93.26813723443692 167.1845480584543 0
91.322849661118 169.8109005034473 0
90.45426407618356 167.2571636077828 0
58.21033388841348 180.2461475358246 0
67.64382119057544 180.2313134234468 0
63.29165507898887 183.4774609592714 0
62.92707753949446 180.2387304796357 0
176.7110205371674 183.4575527734801 0
172.3583400812787 180.2140291216561 0
181.7901804558888 180.243523651824 0
177.0742602685837 180.22877638674 0
147.3305192658567 163.2415941359559 0
146.2281182247494 166.0941589655775 0
129.3451144413126 79.39808954688843 0
135.8766601795698 148.2645877406692 0
137.6293267824269 141.6275020827533 0
138.9925518930445 145.5831500154005 0
145.9107719706283 68.97064289960061 0
145.9069740813735 73.81126451735157 0
145.3660097401172 7.794830452246771 0
140.3660097401172 2.985455452246782 0
145.1830048700586 3.897415226123371 0
93.90776565405078 183.1071172792694 0
94.45388282702538 186.5535586396347 0
146.3773640377714 184.0047246279507 0
145.6886820188857 187.0023623139753 0
145.9161096466502 64.1581809360467 0
82.38205521445192 161.1530753658081 0
86.270345846081 162.8731067987063 0
83.37648521007041 163.8156498116715 0
113.7133178529199 145.4365247080983 0
115.3927770305125 149.4219201298518 0
111.7790650744719 150.637276360553 0
110.0996058968793 146.6518809387995 0
112.7461914636959 148.0369005343256 0
103.2131326303973 101.5580288671903 0
136.8662814885802 17.82677661939968 0
131.4843118303217 18.83941706407245 0
130.9505577761583 13.66124681118552 0
136.3325274344168 12.64860636651278 0
133.9084196323693 15.74401171529261 0
129.4020886587456 44.78789331263617 0
129.3930597481852 49.91115089330067 0
111.4918115176344 139.7612174387344 0
114.9843641252095 141.7119424164026 0
167.5140815608243 162.1685630747281 0
165.0140815608243 158.6560630747281 0
167.5070407804122 159.828031537364 0
74.9290445025005 158.7836755903668 0
72.4290445025005 162.2961755903668 0
72.46452225125026 159.8918377951834 0
155.5344815098366 175.5088057983953 0
159.2672407549183 174.5044028991976 0
124.1327392170041 160.4622920598168 0
127.6087187188005 156.7852037658476 0
128.0096824860418 159.9196165611023 0
129.7949319998139 34.73592002596666 0
129.5985103292797 39.76190666930141 0
88.05254292935226 159.7302202337784 0
85.2770064494332 157.6164226196671 0
87.77627146467613 157.0713601168892 0
155.3885612151891 157.4779451911757 0
153.1844815197088 159.6757759138501 0
152.8422407598544 157.0441379569251 0
100.9000576002157 42.35584598998686 0
104.8771393833265 46.36846788859684 0
101.4541760967278 45.95656955879222 0
103.0821646029792 36.33305469877774 0
105.5976050932648 41.15606101760216 0
101.9911111015975 39.3444503443823 0
105.0018468224301 28.07448634873697 0
102.215356204067 22.07166970408257 0
107.4659842033542 20.09624088649659 0
106.2339155128921 24.08536361761679 0
79.60504876501874 158.974152746141 0
82.44102760722596 158.2952876829041 0
160.6629252642248 158.4484706555793 0
158.0257432397069 157.9632079233775 0
120.1871891277613 20.31146663091241 0
125.0095711825171 17.06010835176065 0
127.8500976080276 21.94478904399844 0
124.0186433678944 21.12812783745542 0
106.8623370158467 150.1033677042685 0
112.2001781625231 154.5154701698336 0
109.5312575891849 152.309418937051 0
87.17994053673718 174.3181709372809 0
89.25139509892759 172.0645357203641 0
180.6651804558888 186.743523651824 0
186.2119418953947 183.4916300482005 0
190.5467614395059 186.7481063963764 0
185.6059709476973 186.7458150241002 0
49.45338045280376 186.748345305903 0
53.7887143412172 183.4944928417276 0
59.33533388841344 186.7461475358246 0
54.3943571706086 186.7472464208638 0
95.54841623841392 160.0718155953159 0
96.73941011175795 158.0364777002513 0
145.6739273173504 160.4415568745703 0
144.1843613513812 158.3325816419851 0
130.4874925868774 25.75728648915813 0
130.1412122933456 30.24660325756241 0
94.5363947240057 162.8148174761431 0
97.84771281406276 168.4804194573208 0
96.19205376903423 165.6476184667319 0
137.7557492983425 136.9800576090045 0
134.4024017658028 132.6577159069258 0
137.8515162974896 132.8194331773678 0
106.9444904076367 143.5411789412931 0
107.8966541912942 139.6238713825168 0
100.7313943900088 171.3210303446533 0
132.520789080396 142.367328778449 0
132.6472115963116 137.7198843047002 0
135.1382691893692 139.6736931937268 0
121.3983729577941 153.0078801559106 0
116.8885741707539 153.7643314076489 0
118.3955749941533 151.2149001428812 0
132.4563463429829 146.6234729571419 0
133.2058115281574 150.0578033889556 0
130.4262022406676 144.4941943697329 0
112.407468674425 17.76381136434264 0
117.3437715236254 14.91870640655618 0
116.2973289010931 19.03763899762752 0
39.54228421905178 186.7485792774705 0
43.99566467185554 183.4969245833735 0
44.49783233592777 186.7484622916868 0
196.0044907112402 183.4966752417335 0
200.4577292717343 186.7485688453571 0
195.5022453556201 186.7483376208667 0
136.901577568283 7.64846233543733 0
135.9507887841415 3.824231167718665 0
205.8245041328334 183.4972637129064 0
210.3667748610991 186.7486948675494 0
205.4122520664167 186.7486318564532 0
29.63322513890138 186.7486948675511 0
34.17550935795316 183.4972741450216 0
34.58775467897658 186.7486370725108 0
121.5618110908759 12.1431541941613 0
114.3737669467503 10.79611635550552 0
117.9677890188131 11.46963527483342 0
118.2763154379552 158.0518324596045 0
122.2114559902941 156.7850330369254 0
121.2045273274797 159.2570622597106 0
215.6398807701056 183.4978033337108 0
220.2731059090065 186.7491084661614 0
215.3199403850528 186.7489016668554 0
19.7268940909935 186.7491084661614 0
24.36011922989488 183.4978033337125 0
24.68005961494744 186.7489016668563 0
68.95632119057542 186.7313134234468 0
64.14582753949443 186.7387304796357 0
171.0458400812787 186.7140291216561 0
175.8555102685837 186.72877638674 0
131.1359361903627 134.4572540188904 0
108.0924431524626 5.350228740474464 0
102.321044057404 9.90797947316554 0
103.660522028702 4.95398973658277 0
220.6481059090066 180.2491084661614 0
210.9292748610991 180.2486948675494 0
215.7886903850529 180.2489016668554 0
29.07072513890142 180.2486948675511 0
19.35189409099353 180.2491084661614 0
24.21130961494747 180.2489016668563 0
87.3415924141992 179.1584991608033 0
84.07191875008705 176.8784866584676 0
150.5968214373816 178.2613376468952 0
151.5068407143567 174.4928388504364 0
201.2077292717344 180.2485688453571 0
206.0685020664168 180.2486318564532 0
38.79228421905185 180.2485792774705 0
33.93150467897664 180.2486370725108 0
134.1217068091715 22.65191450923214 0
137.3570117899965 21.13226678947265 0
126.2561844335171 12.90220050267341 0
109.8416334415633 12.20706672326496 0
111.2331050496065 8.073172547989998 0
48.51588045280381 180.248345305903 0
43.65408233592782 180.2484622916868 0
191.4842614395059 180.2481063963764 0
196.3459953556202 180.2483376208667 0
98.16349329766823 12.32613195158322 0
93.93489239272689 17.38713121889212 0
94.08174664883411 13.37712847579159 0
186.6372209476974 180.2458150241002 0
53.36310717060863 180.2472464208638 0
140.849268587267 10.22171840937978 0
77.03409326751924 161.2953283365079 0
77.26704663375962 158.8789141682539 0
163.1770068250491 160.6420337303073 0
162.8385034125245 158.5522668651537 0
107.9333516615839 44.26013978452369 0
100.7425982107568 16.95764872383657 0
104.9001489704926 14.53949624541889 0
101.5318211340804 13.43281409850105 0
112.4483654041142 174.9989688702681 0
111.9497993118879 178.6254076308638 0
114.7093287169726 171.4323114716987 0
98.07512429839697 19.72940046148734 0
91.36787557452038 161.5605401471905 0
93.45814590646715 160.8161778712532 0
150.3369542349297 161.8268907094581 0
148.0054407761401 161.1342237920142 0
106.9034137117417 146.8222733227808 0
71.24457946055442 183.3820408261951 0
73.1222897302772 186.6910204130976 0
168.7631429623569 183.2531213930216 0
166.8815714811784 186.6265606965108 0
71.71603973027722 180.1910204130976 0
168.2878214811784 180.1265606965108 0
74.8762161105593 163.035795925495 0
164.6791160087301 162.6134826314907 0
14.60372456037848 183.4989663176739 0
14.52061228018925 180.2494831588369 0
225.3962754396215 183.4989663176739 0
225.4793877198108 180.2494831588369 0
88.81911071030069 162.2168234729484 0
225.1981377198107 186.7494831588369 0
14.80186228018925 186.7494831588369 0
130.9859022085995 22.29835177661531 0
90.62467903412498 181.1328082200363 0
148.4870927375765 181.1330311374229 0
108.6538088224588 16.15165380488077 0
124.5035458382973 154.8965419608791 0
115.2382468002392 156.283651314719 0
104.0420057127046 32.20377052375736 0
153.1608194245146 162.2254628306251 0
$EndNodes
$Elements
17 1104 1 1104
1 1 1 8
1 1 17 
2 17 18 
3 18 19 
4 19 20 
5 20 21 
6 21 22 
7 22 23 
8 23 2 
1 2 1 4
9 2 24 
10 24 25 
11 25 26 
12 26 3 
1 3 1 2
13 3 27 
14 27 4 
1 4 1 2
15 4 28 
16 28 5 
1 5 1 16
17 5 29 
18 29 30 
19 30 31 
20 31 32 
21 32 33 
22 33 34 
23 34 35 
24 35 36 
25 36 37 
26 37 38 
27 38 39 
28 39 40 
29 40 41 
30 41 42 
31 42 43 
32 43 6 
1 6 1 4
33 6 44 
34 44 45 
35 45 46 
36 46 7 
1 7 1 48
37 7 47 
38 47 48 
39 48 49 
40 49 50 
41 50 51 
42 51 52 
43 52 53 
44 53 54 
45 54 55 
46 55 56 
47 56 57 
48 57 58 
49 58 59 
50 59 60 
51 60 61 
52 61 62 
53 62 63 
54 63 64 
55 64 65 
56 65 66 
57 66 67 
58 67 68 
59 68 69 
60 69 70 
61 70 71 
62 71 72 
63 72 73 
64 73 74 
65 74 75 
66 75 76 
67 76 77 
68 77 78 
69 78 79 
70 79 80 
71 80 81 
72 81 82 
73 82 83 
74 83 84 
75 84 85 
76 85 86 
77 86 87 
78 87 88 
79 88 89 
80 89 90 
81 90 91 
82 91 92 
83 92 93 
84 93 8 
1 8 1 4
85 8 94 
86 94 95 
87 95 96 
88 96 9 
1 9 1 16
89 9 97 
90 97 98 
91 98 99 
92 99 100 
93 100 101 
94 101 102 
95 102 103 
96 103 104 
97 104 105 
98 105 106 
99 106 107 
100 107 108 
101 108 109 
102 109 110 
103 110 111 
104 111 10 
1 10 1 2
105 10 112 
106 112 11 
1 11 1 2
107 11 113 
108 113 12 
1 12 1 4
109 12 114 
110 114 115 
111 115 116 
112 116 13 
1 13 1 8
113 13 117 
114 117 118 
115 118 119 
116 119 120 
117 120 121 
118 121 122 
119 122 123 
120 123 14 
1 14 1 32
121 14 124 
122 124 125 
123 125 126 
124 126 127 
125 127 128 
126 128 129 
127 129 130 
128 130 131 
129 131 132 
130 132 133 
131 133 134 
132 134 135 
133 135 136 
134 136 137 
135 137 138 
136 138 139 
137 139 140 
138 140 141 
139 141 142 
140 142 143 
141 143 144 
142 144 145 
143 145 146 
144 146 147 
145 147 148 
146 148 149 
147 149 150 
148 150 151 
149 151 152 
150 152 153 
151 153 154 
152 154 15 
1 15 1 12
153 15 155 
154 155 156 
155 156 157 
156 157 158 
157 158 159 
158 159 160 
159 160 161 
160 161 162 
161 162 163 
162 163 164 
163 164 165 
164 165 16 
1 16 1 32
165 16 166 
166 166 167 
167 167 168 
168 168 169 
169 169 170 
170 170 171 
171 171 172 
172 172 173 
173 173 174 
174 174 175 
175 175 176 
176 176 177 
177 177 178 
178 178 179 
179 179 180 
180 180 181 
181 181 182 
182 182 183 
183 183 184 
184 184 185 
185 185 186 
186 186 187 
187 187 188 
188 188 189 
189 189 190 
190 190 191 
191 191 192 
192 192 193 
193 193 194 
194 194 195 
195 195 196 
196 196 1 
2 1 3 908
197 298 376 380 379 
198 376 209 377 380 
199 380 377 299 378 
200 379 380 378 270 
201 292 381 385 384 
202 381 252 382 385 
203 385 382 289 383 
204 384 385 383 291 
205 220 386 390 389 
206 386 230 387 390 
207 390 387 288 388 
208 389 390 388 287 
209 206 391 394 393 
210 391 289 382 394 
211 394 382 252 392 
212 393 394 392 304 
213 252 381 398 397 
214 381 292 395 398 
215 398 395 249 396 
216 397 398 396 247 
217 301 399 403 402 
218 399 211 400 403 
219 403 400 302 401 
220 402 403 401 271 
221 5 404 408 407 
222 404 337 405 408 
223 408 405 62 406 
224 407 408 406 282 
225 10 409 413 412 
226 409 281 410 413 
227 413 410 78 411 
228 412 413 411 336 
229 251 414 417 416 
230 414 249 395 417 
231 417 395 292 415 
232 416 417 415 327 
233 324 418 422 421 
234 418 317 419 422 
235 422 419 233 420 
236 421 422 420 322 
237 228 423 427 426 
238 423 227 424 427 
239 427 424 235 425 
240 426 427 425 312 
241 263 428 431 430 
242 428 299 377 431 
243 431 377 209 429 
244 430 431 429 295 
245 125 432 435 124 
246 432 198 433 435 
247 435 433 204 434 
248 124 435 434 14 
249 195 196 439 438 
250 196 1 436 439 
251 439 436 207 437 
252 438 439 437 197 
253 270 440 442 379 
254 440 302 400 442 
255 442 400 211 441 
256 379 442 441 298 
257 115 443 445 114 
258 443 360 444 445 
259 445 444 11 113 
260 114 445 113 12 
261 25 26 448 447 
262 26 3 27 448 
263 448 27 4 446 
264 447 448 446 361 
265 319 449 453 452 
266 449 222 450 453 
267 453 450 280 451 
268 452 453 451 323 
269 230 454 457 387 
270 454 285 455 457 
271 457 455 367 456 
272 387 457 456 288 
273 285 454 461 460 
274 454 230 458 461 
275 461 458 319 459 
276 460 461 459 284 
277 206 393 465 464 
278 393 304 462 465 
279 465 462 272 463 
280 464 465 463 353 
281 45 466 468 44 
282 466 342 467 468 
283 468 467 42 43 
284 44 468 43 6 
285 95 96 471 470 
286 96 9 97 471 
287 471 97 98 469 
288 470 471 469 343 
289 45 46 473 466 
290 46 7 47 473 
291 473 47 48 472 
292 466 473 472 342 
293 95 470 475 94 
294 470 343 474 475 
295 475 474 92 93 
296 94 475 93 8 
297 306 476 480 479 
298 476 305 477 480 
299 480 477 303 478 
300 479 480 478 201 
301 260 481 484 483 
302 481 258 482 484 
303 484 482 270 378 
304 483 484 378 299 
305 267 485 489 488 
306 485 316 486 489 
307 489 486 210 487 
308 488 489 487 309 
309 256 490 493 492 
310 490 254 491 493 
311 493 491 271 401 
312 492 493 401 302 
313 286 494 498 497 
314 494 320 495 498 
315 498 495 202 496 
316 497 498 496 318 
317 268 499 503 502 
318 499 326 500 503 
319 503 500 200 501 
320 502 503 501 325 
321 308 504 508 507 
322 504 241 505 508 
323 508 505 361 506 
324 507 508 506 279 
325 309 509 511 488 
326 509 303 477 511 
327 511 477 305 510 
328 488 511 510 267 
329 367 455 515 514 
330 455 285 512 515 
331 515 512 70 513 
332 514 515 513 221 
333 232 516 519 518 
334 516 66 67 519 
335 519 67 68 517 
336 518 519 517 284 
337 233 520 523 522 
338 520 283 521 523 
339 523 521 72 73 
340 522 523 73 74 
341 283 524 525 521 
342 524 221 513 525 
343 525 513 70 71 
344 521 525 71 72 
345 206 464 529 528 
346 464 353 526 529 
347 529 526 328 527 
348 528 529 527 273 
349 233 419 532 520 
350 419 317 530 532 
351 532 530 312 531 
352 520 532 531 283 
353 284 517 533 460 
354 517 68 69 533 
355 533 69 70 512 
356 460 533 512 285 
357 273 534 536 528 
358 534 127 128 536 
359 536 128 129 535 
360 528 536 535 206 
361 294 537 540 539 
362 537 268 502 540 
363 540 502 325 538 
364 539 540 538 321 
365 316 541 543 486 
366 541 286 497 543 
367 543 497 318 542 
368 486 543 542 210 
369 323 544 545 452 
370 544 232 518 545 
371 545 518 284 459 
372 452 545 459 319 
373 206 535 547 391 
374 535 129 130 547 
375 547 130 131 546 
376 391 547 546 289 
377 281 548 550 410 
378 548 363 549 550 
379 550 549 76 77 
380 410 550 77 78 
381 282 406 553 552 
382 406 62 63 553 
383 553 63 64 551 
384 552 553 551 364 
385 219 554 557 556 
386 554 290 555 557 
387 557 555 158 159 
388 556 557 159 160 
389 326 558 561 500 
390 558 329 559 561 
391 561 559 300 560 
392 500 561 560 200 
393 189 190 564 563 
394 190 191 562 564 
395 564 562 201 478 
396 563 564 478 303 
397 289 546 566 383 
398 546 131 132 566 
399 566 132 133 565 
400 383 566 565 291 
401 145 567 569 144 
402 567 295 429 569 
403 569 429 209 568 
404 144 569 568 143 
405 295 567 572 571 
406 567 145 146 572 
407 572 146 147 570 
408 571 572 570 296 
409 276 573 575 574 
410 573 201 562 575 
411 575 562 191 192 
412 574 575 192 193 
413 296 570 578 577 
414 570 147 148 578 
415 578 148 149 576 
416 577 578 576 203 
417 139 579 581 138 
418 579 211 399 581 
419 581 399 301 580 
420 138 581 580 137 
421 291 565 584 583 
422 565 133 134 584 
423 584 134 135 582 
424 583 584 582 199 
425 200 560 587 586 
426 560 300 585 587 
427 587 585 173 174 
428 586 587 174 175 
429 300 588 590 585 
430 588 212 589 590 
431 590 589 171 172 
432 585 590 172 173 
433 211 579 592 441 
434 579 139 140 592 
435 592 140 141 591 
436 441 592 591 298 
437 143 568 593 142 
438 568 209 376 593 
439 593 376 298 591 
440 142 593 591 141 
441 137 580 595 136 
442 580 301 594 595 
443 595 594 199 582 
444 136 595 582 135 
445 299 428 598 483 
446 428 263 596 598 
447 598 596 262 597 
448 483 598 597 260 
449 255 599 602 601 
450 599 257 600 602 
451 602 600 268 537 
452 601 602 537 294 
453 262 603 606 597 
454 603 261 604 606 
455 606 604 259 605 
456 597 606 605 260 
457 302 440 608 492 
458 440 270 482 608 
459 608 482 258 607 
460 492 608 607 256 
461 260 605 611 481 
462 605 259 609 611 
463 611 609 257 610 
464 481 611 610 258 
465 258 610 613 607 
466 610 257 599 613 
467 613 599 255 612 
468 607 613 612 256 
469 327 614 616 416 
470 614 271 491 616 
471 616 491 254 615 
472 416 616 615 251 
473 261 603 620 619 
474 603 262 617 620 
475 620 617 265 618 
476 619 620 618 264 
477 256 612 623 490 
478 612 255 621 623 
479 623 621 253 622 
480 490 623 622 254 
481 272 462 627 626 
482 462 304 624 627 
483 627 624 245 625 
484 626 627 625 243 
485 151 628 630 150 
486 628 371 629 630 
487 630 629 203 576 
488 150 630 576 149 
489 169 170 633 632 
490 170 171 589 633 
491 633 589 212 631 
492 632 633 631 297 
493 274 634 637 636 
494 634 265 617 637 
495 637 617 262 635 
496 636 637 635 372 
497 254 622 640 615 
498 622 253 638 640 
499 640 638 250 639 
500 615 640 639 251 
501 375 641 645 644 
502 641 278 642 645 
503 645 642 216 643 
504 644 645 643 277 
505 331 646 650 649 
506 646 279 647 650 
507 650 647 217 648 
508 649 650 648 280 
509 265 634 654 653 
510 634 274 651 654 
511 654 651 275 652 
512 653 654 652 266 
513 329 655 657 559 
514 655 333 656 657 
515 657 656 212 588 
516 559 657 588 300 
517 265 653 660 618 
518 653 266 658 660 
519 660 658 269 659 
520 618 660 659 264 
521 167 168 663 662 
522 168 169 632 663 
523 663 632 297 661 
524 662 663 661 234 
525 251 639 666 414 
526 639 250 664 666 
527 666 664 248 665 
528 414 666 665 249 
529 249 665 669 396 
530 665 248 667 669 
531 669 667 246 668 
532 396 669 668 247 
533 185 186 672 671 
534 186 187 670 672 
535 672 670 309 487 
536 671 672 487 210 
537 247 673 674 397 
538 673 245 624 674 
539 674 624 304 392 
540 397 674 392 252 
541 333 675 677 656 
542 675 334 676 677 
543 677 676 297 631 
544 656 677 631 212 
545 320 678 680 495 
546 678 294 539 680 
547 680 539 321 679 
548 495 680 679 202 
549 277 643 683 682 
550 643 216 681 683 
551 683 681 10 112 
552 682 683 112 11 
553 247 668 686 673 
554 668 246 684 686 
555 686 684 244 685 
556 673 686 685 245 
557 242 687 691 690 
558 687 237 688 691 
559 691 688 236 689 
560 690 691 689 293 
561 267 510 694 693 
562 510 305 692 694 
563 694 692 244 684 
564 693 694 684 246 
565 127 534 696 126 
566 534 273 695 696 
567 696 695 198 432 
568 126 696 432 125 
569 181 182 699 698 
570 182 183 697 699 
571 699 697 318 496 
572 698 699 496 202 
573 246 667 701 693 
574 667 248 700 701 
575 701 700 316 485 
576 693 701 485 267 
577 239 702 704 703 
578 702 244 692 704 
579 704 692 305 476 
580 703 704 476 306 
581 272 626 708 707 
582 626 243 705 708 
583 708 705 239 706 
584 707 708 706 242 
585 250 638 711 710 
586 638 253 709 711 
587 711 709 320 494 
588 710 711 494 286 
589 313 712 715 714 
590 712 215 713 715 
591 715 713 227 423 
592 714 715 423 228 
593 245 685 716 625 
594 685 244 702 716 
595 716 702 239 705 
596 625 716 705 243 
597 193 194 718 574 
598 194 195 438 718 
599 718 438 197 717 
600 574 718 717 276 
601 314 719 723 722 
602 719 222 720 723 
603 723 720 220 721 
604 722 723 721 213 
605 303 509 724 563 
606 509 309 670 724 
607 724 670 187 188 
608 563 724 188 189 
609 271 614 726 402 
610 614 327 725 726 
611 726 725 199 594 
612 402 726 594 301 
613 175 176 728 586 
614 176 177 727 728 
615 728 727 325 501 
616 586 728 501 200 
617 257 609 730 600 
618 609 259 729 730 
619 730 729 326 499 
620 600 730 499 268 
621 160 161 733 556 
622 161 162 731 733 
623 733 731 311 732 
624 556 733 732 219 
625 231 734 737 736 
626 734 287 388 737 
627 737 388 288 735 
628 736 737 735 235 
629 223 738 740 739 
630 738 231 736 740 
631 740 736 235 424 
632 739 740 424 227 
633 205 741 743 742 
634 741 223 739 743 
635 743 739 227 713 
636 742 743 713 215 
637 208 744 747 746 
638 744 213 721 747 
639 747 721 220 745 
640 746 747 745 214 
641 286 541 748 710 
642 541 316 700 748 
643 748 700 248 664 
644 710 748 664 250 
645 213 744 751 750 
646 744 208 749 751 
647 751 749 197 437 
648 750 751 437 207 
649 215 752 754 742 
650 752 204 433 754 
651 754 433 198 753 
652 742 754 753 205 
653 214 755 758 757 
654 755 236 688 758 
655 758 688 237 756 
656 757 758 756 218 
657 204 759 762 434 
658 759 368 760 762 
659 762 760 225 761 
660 434 762 761 14 
661 207 436 766 765 
662 436 1 763 766 
663 766 763 226 764 
664 765 766 764 369 
665 156 767 769 155 
666 767 355 768 769 
667 769 768 153 154 
668 155 769 154 15 
669 319 458 770 449 
670 458 230 386 770 
671 770 386 220 720 
672 449 770 720 222 
673 217 647 772 771 
674 647 279 506 772 
675 772 506 361 446 
676 771 772 446 4 
677 240 773 775 774 
678 773 277 682 775 
679 775 682 11 444 
680 774 775 444 360 
681 210 542 776 671 
682 542 318 697 776 
683 776 697 183 184 
684 671 776 184 185 
685 242 706 779 687 
686 706 239 777 779 
687 779 777 238 778 
688 687 779 778 237 
689 273 527 781 695 
690 527 328 780 781 
691 781 780 205 753 
692 695 781 753 198 
693 375 782 785 641 
694 782 330 783 785 
695 785 783 324 784 
696 641 785 784 278 
697 356 786 789 788 
698 786 108 109 789 
699 789 109 110 787 
700 788 789 787 348 
701 357 790 793 792 
702 790 349 791 793 
703 793 791 30 31 
704 792 793 31 32 
705 314 794 795 719 
706 794 331 649 795 
707 795 649 280 450 
708 719 795 450 222 
709 294 678 796 601 
710 678 320 709 796 
711 796 709 253 621 
712 601 796 621 255 
713 276 717 799 798 
714 717 197 749 799 
715 799 749 208 797 
716 798 799 797 332 
717 202 679 801 698 
718 679 321 800 801 
719 801 800 179 180 
720 698 801 180 181 
721 164 165 804 803 
722 165 16 166 804 
723 804 166 167 802 
724 803 804 802 362 
725 74 75 806 522 
726 75 76 549 806 
727 806 549 363 805 
728 522 806 805 233 
729 66 516 808 65 
730 516 232 807 808 
731 808 807 364 551 
732 65 808 551 64 
733 321 538 809 800 
734 538 325 727 809 
735 809 727 177 178 
736 800 809 178 179 
737 240 810 812 773 
738 810 310 811 812 
739 812 811 375 644 
740 773 812 644 277 
741 358 813 817 816 
742 813 293 814 817 
743 817 814 354 815 
744 816 817 815 224 
745 291 583 818 384 
746 583 199 725 818 
747 818 725 327 415 
748 384 818 415 292 
749 234 819 823 822 
750 819 335 820 823 
751 823 820 366 821 
752 822 823 821 311 
753 259 604 825 729 
754 604 261 824 825 
755 825 824 329 558 
756 729 825 558 326 
757 293 813 827 690 
758 813 358 826 827 
759 827 826 272 707 
760 690 827 707 242 
761 25 828 830 24 
762 828 338 829 830 
763 830 829 22 23 
764 24 830 23 2 
765 115 116 833 832 
766 116 13 117 833 
767 833 117 118 831 
768 832 833 831 339 
769 4 28 835 771 
770 28 5 407 835 
771 835 407 282 834 
772 771 835 834 217 
773 287 836 838 389 
774 836 350 837 838 
775 838 837 214 745 
776 389 838 745 220 
777 261 619 840 824 
778 619 264 839 840 
779 840 839 333 655 
780 824 840 655 329 
781 14 761 843 123 
782 761 225 841 843 
783 843 841 310 842 
784 123 843 842 122 
785 1 17 846 763 
786 17 18 844 846 
787 846 844 308 845 
788 763 846 845 226 
789 263 430 849 848 
790 430 295 571 849 
791 849 571 296 847 
792 848 849 847 374 
793 203 850 852 577 
794 850 372 851 852 
795 852 851 374 847 
796 577 852 847 296 
797 274 853 856 651 
798 853 371 854 856 
799 856 854 373 855 
800 651 856 855 275 
801 122 842 858 121 
802 842 310 810 858 
803 858 810 240 857 
804 121 858 857 120 
805 18 19 860 844 
806 19 20 859 860 
807 860 859 241 504 
808 844 860 504 308 
809 266 861 864 658 
810 861 307 862 864 
811 864 862 366 863 
812 658 864 863 269 
813 205 865 867 741 
814 865 224 815 867 
815 867 815 354 866 
816 741 867 866 223 
817 324 421 869 784 
818 421 322 868 869 
819 869 868 216 642 
820 784 869 642 278 
821 58 870 873 57 
822 870 357 871 873 
823 873 871 352 872 
824 57 873 872 56 
825 82 83 877 876 
826 83 84 874 877 
827 877 874 351 875 
828 876 877 875 356 
829 215 712 879 752 
830 712 313 878 879 
831 879 878 368 759 
832 752 879 759 204 
833 213 750 881 722 
834 750 207 765 881 
835 881 765 369 880 
836 722 881 880 314 
837 333 839 883 675 
838 839 264 659 883 
839 883 659 269 882 
840 675 883 882 334 
841 330 884 886 783 
842 884 313 714 886 
843 886 714 228 885 
844 783 886 885 324 
845 276 887 889 573 
846 887 359 888 889 
847 889 888 306 479 
848 573 889 479 201 
849 328 526 891 890 
850 526 353 463 891 
851 891 463 272 826 
852 890 891 826 358 
853 312 530 892 426 
854 530 317 418 892 
855 892 418 324 885 
856 426 892 885 228 
857 276 798 895 887 
858 798 332 893 895 
859 895 893 238 894 
860 887 895 894 359 
861 236 896 898 689 
862 896 370 897 898 
863 898 897 354 814 
864 689 898 814 293 
865 214 757 900 746 
866 757 218 899 900 
867 900 899 332 797 
868 746 900 797 208 
869 237 778 901 756 
870 778 238 893 901 
871 901 893 332 899 
872 756 901 899 218 
873 266 652 904 861 
874 652 275 902 904 
875 904 902 365 903 
876 861 904 903 307 
877 84 85 907 874 
878 85 86 905 907 
879 907 905 346 906 
880 874 907 906 351 
881 56 872 910 55 
882 872 352 908 910 
883 910 908 347 909 
884 55 910 909 54 
885 162 163 912 731 
886 163 164 803 912 
887 912 803 362 911 
888 731 912 911 311 
889 54 909 915 53 
890 909 347 913 915 
891 915 913 345 914 
892 53 915 914 52 
893 86 87 918 905 
894 87 88 916 918 
895 918 916 344 917 
896 905 918 917 346 
897 219 919 921 554 
898 919 307 903 921 
899 921 903 365 920 
900 554 921 920 290 
901 231 922 924 734 
902 922 370 923 924 
903 924 923 350 836 
904 734 924 836 287 
905 52 914 927 51 
906 914 345 925 927 
907 927 925 340 926 
908 51 927 926 50 
909 88 89 930 916 
910 89 90 928 930 
911 930 928 341 929 
912 916 930 929 344 
913 356 788 932 876 
914 788 348 931 932 
915 932 931 80 81 
916 876 932 81 82 
917 357 870 934 790 
918 870 58 59 934 
919 934 59 60 933 
920 790 934 933 349 
921 239 703 935 777 
922 703 306 888 935 
923 935 888 359 894 
924 777 935 894 238 
925 158 936 938 157 
926 936 229 937 938 
927 938 937 355 767 
928 157 938 767 156 
929 38 39 941 940 
930 39 40 939 941 
931 941 939 340 925 
932 940 941 925 345 
933 102 942 944 101 
934 942 344 929 944 
935 944 929 341 943 
936 101 944 943 100 
937 10 681 946 409 
938 681 216 868 946 
939 946 868 322 945 
940 409 946 945 281 
941 280 648 948 451 
942 648 217 834 948 
943 948 834 282 947 
944 451 948 947 323 
945 36 37 950 949 
946 37 38 940 950 
947 950 940 345 913 
948 949 950 913 347 
949 104 951 952 103 
950 951 346 917 952 
951 952 917 344 942 
952 103 952 942 102 
953 234 661 954 819 
954 661 297 676 954 
955 954 676 334 953 
956 819 954 953 335 
957 307 919 955 862 
958 919 219 732 955 
959 955 732 311 821 
960 862 955 821 366 
961 158 555 957 936 
962 555 290 920 957 
963 957 920 365 956 
964 936 957 956 229 
965 106 958 959 105 
966 958 351 906 959 
967 959 906 346 951 
968 105 959 951 104 
969 34 35 961 960 
970 35 36 949 961 
971 961 949 347 908 
972 960 961 908 352 
973 151 152 964 963 
974 152 153 768 964 
975 964 768 355 962 
976 963 964 962 315 
977 32 33 965 792 
978 33 34 960 965 
979 965 960 352 871 
980 792 965 871 357 
981 108 786 966 107 
982 786 356 875 966 
983 966 875 351 958 
984 107 966 958 106 
985 311 911 967 822 
986 911 362 802 967 
987 967 802 167 662 
988 822 967 662 234 
989 120 857 969 119 
990 857 240 968 969 
991 969 968 339 831 
992 119 969 831 118 
993 20 21 971 859 
994 21 22 829 971 
995 971 829 338 970 
996 859 971 970 241 
997 262 596 972 635 
998 596 263 848 972 
999 972 848 374 851 
1000 635 972 851 372 
1001 373 973 975 974 
1002 973 315 962 975 
1003 975 962 355 937 
1004 974 975 937 229 
1005 283 531 977 524 
1006 531 312 976 977 
1007 977 976 367 514 
1008 524 977 514 221 
1009 312 425 978 976 
1010 425 235 735 978 
1011 978 735 288 456 
1012 976 978 456 367 
1013 151 963 979 628 
1014 963 315 973 979 
1015 979 973 373 854 
1016 628 979 854 371 
1017 225 760 981 980 
1018 760 368 878 981 
1019 981 878 313 884 
1020 980 981 884 330 
1021 226 982 983 764 
1022 982 331 794 983 
1023 983 794 314 880 
1024 764 983 880 369 
1025 205 780 984 865 
1026 780 328 890 984 
1027 984 890 358 816 
1028 865 984 816 224 
1029 78 79 986 411 
1030 79 80 931 986 
1031 986 931 348 985 
1032 411 986 985 336 
1033 62 405 988 61 
1034 405 337 987 988 
1035 988 987 349 933 
1036 61 988 933 60 
1037 10 412 989 111 
1038 412 336 985 989 
1039 989 985 348 787 
1040 111 989 787 110 
1041 5 29 990 404 
1042 29 30 791 990 
1043 990 791 349 987 
1044 404 990 987 337 
1045 115 832 991 443 
1046 832 339 968 991 
1047 991 968 240 774 
1048 443 991 774 360 
1049 25 447 992 828 
1050 447 361 505 992 
1051 992 505 241 970 
1052 828 992 970 338 
1053 100 943 994 99 
1054 943 341 993 994 
1055 994 993 343 469 
1056 99 994 469 98 
1057 40 41 996 939 
1058 41 42 467 996 
1059 996 467 342 995 
1060 939 996 995 340 
1061 330 782 997 980 
1062 782 375 811 997 
1063 997 811 310 841 
1064 980 997 841 225 
1065 50 926 998 49 
1066 926 340 995 998 
1067 998 995 342 472 
1068 49 998 472 48 
1069 90 91 999 928 
1070 91 92 474 999 
1071 999 474 343 993 
1072 928 999 993 341 
1073 334 882 1000 953 
1074 882 269 863 1000 
1075 1000 863 366 820 
1076 953 1000 820 335 
1077 233 805 1001 420 
1078 805 363 548 1001 
1079 1001 548 281 945 
1080 420 1001 945 322 
1081 232 544 1002 807 
1082 544 323 947 1002 
1083 1002 947 282 552 
1084 807 1002 552 364 
1085 229 956 1003 974 
1086 956 365 902 1003 
1087 1003 902 275 855 
1088 974 1003 855 373 
1089 214 837 1004 755 
1090 837 350 923 1004 
1091 1004 923 370 896 
1092 755 1004 896 236 
1093 223 866 1005 738 
1094 866 354 897 1005 
1095 1005 897 370 922 
1096 738 1005 922 231 
1097 203 629 1006 850 
1098 629 371 853 1006 
1099 1006 853 274 636 
1100 850 1006 636 372 
1101 279 646 1007 507 
1102 646 331 982 1007 
1103 1007 982 226 845 
1104 507 1007 845 308 
$EndElements
